<?xml version="1.0" encoding="utf-8"?>
<!-- Generator: Adobe Illustrator 24.3.0, SVG Export Plug-In . SVG Version: 6.00 Build 0)  -->
<svg version="1.1" id="Layer_1" xmlns="http://www.w3.org/2000/svg" xmlns:xlink="http://www.w3.org/1999/xlink" x="0px" y="0px"
	 viewBox="0 0 834 400" style="enable-background:new 0 0 834 400;" xml:space="preserve">
<style type="text/css">
	.st0{fill:#F7B369;}
	.st1{fill:#F48462;}
	.st2{fill:#68B6D8;}
	.st3{fill:#5C69A5;}
	.st4{fill:#A37B90;}
	.st5{fill:#FFFFFF;}
	.st6{fill:#7CA1D8;}
	.st7{fill:#92B4EA;}
	.st8{fill:#EFA459;}
	.st9{fill:#FEFCE5;}
	.st10{fill:#40507F;}
	.st11{fill:#EF9F50;}
	.st12{fill:#FFB255;}
	.st13{fill:#EA765C;}
	.st14{fill:#35456D;}
	.st15{fill:#5AA5BF;}
</style>
<g>
	<g>
		<path class="st0" d="M71.2,179.7l-32,1c-5.7,0.2-10.4-4.3-10.6-10l-1.4-43.5c-0.2-5.7,4.3-10.4,10-10.6l32-1
			c5.7-0.2,10.4,4.3,10.6,10l1.4,43.5C81.4,174.7,76.9,179.5,71.2,179.7z"/>
	</g>
	<g>
		<polygon class="st1" points="36.3,240.9 36.3,311.6 58.9,311.6 64.1,244.9 		"/>
	</g>
	<g>
		<polygon class="st1" points="96,235.7 106.9,299.9 86.3,308.5 67.5,236.3 		"/>
	</g>
	<g>
		<path class="st2" d="M38.1,179.1c0,0-3.2,14.9-5.1,30.4c-1.6,13.1-2.8,35.4-2.8,35.4l38.4,0.9l33.1-5.6c0,0-9.4-56.8-12.6-63.5
			C86,170.1,38.1,179.1,38.1,179.1z"/>
	</g>
	<g>
		<path class="st3" d="M90.3,180l-40.1,1.6l-30.4-14.8c0,0,4.4-26.2,14.8-37.7c10.4-11.5,24.3-11.8,24.3-11.8s6.4-0.8,13.5,0.5
			c2.8,0.5,5.7,1.3,8.4,2.7c1.8,0.9,3.5,2.1,5,3.6C94.7,133.1,90.3,180,90.3,180z"/>
	</g>
	<g>
		<g>
			<g>
				<g>
					<path class="st1" d="M56.4,109.2l0.3,9.8c0,0,2.1,2.8,8.5,3.2c4.8,0.3,6.4-0.7,6.4-0.7l-0.8-5l-0.8-4.8l-11.7-2.1L56.4,109.2z"
						/>
				</g>
			</g>
		</g>
	</g>
	<g>
		<g>
			<g>
				<g>
					<path d="M58.4,109.6c0,0.3,0.2,0.7,0.3,1.1c2.6,5.4,9.3,6.5,12.1,6.6l-0.8-5.4L58.4,109.6z"/>
				</g>
			</g>
		</g>
	</g>
	<g>
		<g>
			<g>
				<g>
					<path class="st1" d="M71.9,86.8c0,0,6.1,13.6,4,21.3c-2.1,7.7-9.1,6.5-13.3,5.1c-4.2-1.5-6.2-4-6.2-4s-3.9,1.4-6.5-2.3
						c-2.6-3.6-1.1-7.8,1.2-8.8c2.2-1,4.9,0.6,4.9,0.6l-2.1-4C53.8,94.8,62.5,74.6,71.9,86.8z"/>
				</g>
			</g>
		</g>
	</g>
	<g>
		<path d="M71.5,103c0,0-0.1,0-0.1,0c-0.3-0.1-0.4-0.4-0.3-0.6c0.7-2.4-1.1-4-1.1-4.1c-0.2-0.2-0.2-0.5,0-0.7
			c0.2-0.2,0.5-0.2,0.7-0.1c0.1,0.1,2.4,2.1,1.4,5.1C71.9,102.8,71.7,103,71.5,103z"/>
	</g>
	<g>
		<path d="M55.4,105.3c-0.1,0-0.3-0.1-0.4-0.2l-3.7-3.9c-0.2-0.2-0.2-0.5,0-0.7c0.2-0.2,0.5-0.2,0.7,0l3.7,3.9
			c0.2,0.2,0.2,0.5,0,0.7C55.6,105.2,55.5,105.3,55.4,105.3z"/>
	</g>
	<g>
		<path d="M51.4,104.2c-0.2,0-0.5-0.2-0.5-0.4c0-0.3,0.1-0.5,0.4-0.6l2.6-0.4c0.3,0,0.5,0.1,0.6,0.4c0,0.3-0.1,0.5-0.4,0.6
			L51.4,104.2C51.5,104.2,51.5,104.2,51.4,104.2z"/>
	</g>
	<g>
		<path d="M65.3,100.1c-0.2,0-0.5-0.2-0.5-0.4l-0.4-3.5c0-0.3,0.2-0.5,0.4-0.6c0.3,0,0.5,0.2,0.6,0.4l0.4,3.5
			C65.9,99.8,65.7,100.1,65.3,100.1C65.4,100.1,65.4,100.1,65.3,100.1z"/>
	</g>
	<g>
		<path d="M72.9,99.5c-0.2,0-0.5-0.2-0.5-0.4l-0.5-3.5c0-0.3,0.1-0.5,0.4-0.6c0.3,0,0.5,0.1,0.6,0.4l0.5,3.5
			C73.4,99.2,73.3,99.4,72.9,99.5C73,99.5,72.9,99.5,72.9,99.5z"/>
	</g>
	<g>
		<path d="M62.8,94.3c-0.1,0-0.2,0-0.2-0.1c-0.2-0.1-0.3-0.4-0.2-0.7c0.9-1.8,3.3-1.4,3.4-1.3c0.3,0.1,0.4,0.3,0.4,0.6
			c-0.1,0.3-0.3,0.4-0.6,0.4c-0.1,0-1.7-0.3-2.3,0.8C63.2,94.2,63,94.3,62.8,94.3z"/>
	</g>
	<g>
		<path d="M70.2,92.7c-0.1,0-0.2,0-0.3-0.1c-0.2-0.2-0.3-0.5-0.1-0.7c0.4-0.6,0.9-0.9,1.5-1c1.2-0.2,2.3,0.8,2.4,0.9
			c0.2,0.2,0.2,0.5,0,0.7c-0.2,0.2-0.5,0.2-0.7,0c-0.2-0.2-1-0.7-1.6-0.6c-0.3,0-0.6,0.2-0.8,0.5C70.5,92.6,70.4,92.7,70.2,92.7z"/>
	</g>
	<g>
		<path d="M55.9,98.8c0,0,0.6,3.2,2.4,2c1.8-1.2-2.4-7.1-2.4-7.1s5,1.7,8.1-2.3c3.1-4.1,1.7-6.6,1.7-6.6l6.9,3.6c0,0,1.4-8.2-1-9.8
			c-2.4-1.6-6.5,0-6.5,0s0.3-3.5-6.7-2.7c-6.9,0.9-6.7,8-6.7,8s-4.6-0.2-6.1,3.9c-1.5,4.1,1.3,7.2,1.3,7.2s-3.2,0.7-1.7,3.5
			c1.5,2.8,3.4,4.1,3.4,4.1S49.4,96.9,55.9,98.8z"/>
	</g>
	<g>
		<path d="M69.4,108.8c-0.2,0-0.4,0-0.7-0.1c-2.7-0.5-3.8-2.9-3.9-3c-0.1-0.2-0.1-0.3,0-0.5c0.1-0.1,0.3-0.2,0.4-0.2l7.7,0.4
			c0.2,0,0.3,0.1,0.4,0.3c0.1,0.2,0.1,0.3,0,0.5C73.4,106.3,71.9,108.8,69.4,108.8z M66.3,106.1c0.5,0.6,1.3,1.4,2.7,1.7
			c1.4,0.3,2.5-0.7,3.1-1.4L66.3,106.1z"/>
	</g>
	<g>
		<path class="st1" d="M21.4,167.1c0,0-5.5,16,12.6,22.3c18.1,6.3,36.2,2.9,36.2,2.9l4.4-12.4l-26.1-8.4L21.4,167.1z"/>
	</g>
	<g>
		<path class="st3" d="M68.7,241.4c-0.3,0-0.5-0.2-0.5-0.5l-2.3-41.7c0-0.2,0.1-0.4,0.3-0.5l15.4-6.4c0.3-0.1,0.5,0,0.7,0.3
			c0.1,0.3,0,0.5-0.3,0.7l-15,6.3l2.3,41.3C69.2,241.1,69,241.4,68.7,241.4C68.7,241.4,68.7,241.4,68.7,241.4z"/>
	</g>
	<g>
		<path class="st4" d="M98.5,302.4c0,0,1.5-9.3,6-10.8c4.5-1.4,6.5,6.3,6.5,6.3s25,3.6,25.8,3.7c0.9,0.2,10,5.3,6.6,10.2
			c-3.4,5-47.8,18.3-50.8,17.7c-3.1-0.6-9.3-23.4-8.4-24.6C84.9,303.8,98.5,302.4,98.5,302.4z"/>
	</g>
	<g>
		<path class="st4" d="M42.7,304.6c0,0,8-9,12.6-8.5c4.7,0.6,5.1,9.7,5.1,9.7s24.2,14.1,24.9,14.7c0.7,0.5,6.9,8.9,1.8,12
			c-5.1,3.1-48.2-1-50.8-2.8s-1.3-26.9,0-27.7C37.6,301.3,42.7,304.6,42.7,304.6z"/>
	</g>
	<g>
		<path class="st5" d="M67.9,122.4c-6.1,0-11.1-2.8-11.4-3c-0.2-0.1-0.3-0.4-0.2-0.7c0.1-0.2,0.4-0.3,0.7-0.2
			c0.1,0,7.2,4.1,14.6,2.4c0.3-0.1,0.5,0.1,0.6,0.4c0.1,0.3-0.1,0.5-0.4,0.6C70.5,122.3,69.1,122.4,67.9,122.4z"/>
	</g>
	<g>
		<polygon class="st3" points="85.7,124.1 103,146.5 89.1,164.7 		"/>
	</g>
	<g>
		<path class="st0" d="M45.7,120.5c0,0,3.8,9.4,4.5,22.2c0.7,12.8-1.7,28.9-1.7,28.9l6,1.9c0,0,2.7-14.1,2.2-31s-5.1-23.9-5.1-23.9
			L45.7,120.5z"/>
	</g>
	<g>
		<path class="st0" d="M81.9,171.8l-6-1.9c0,0,2.4-16.1,1.7-28.9c-0.6-10.7-4.1-20.4-5.2-23.3c2.8,0.5,5.7,1.3,8.4,2.7
			c1.4,3.6,3.1,10.2,3.4,20.3C84.7,157.7,81.9,171.8,81.9,171.8z"/>
	</g>
	<g>
		<path class="st6" d="M110,177.6H60.9c-1,0-1.9-0.8-1.9-1.9v-4.5c0-1,0.8-1.9,1.9-1.9H110c1,0,1.9,0.8,1.9,1.9v4.5
			C111.9,176.8,111.1,177.6,110,177.6z"/>
	</g>
	<g>
		<path class="st6" d="M107.1,161.2H67.8c-1,0-1.9-0.8-1.9-1.9v-9.1c0-1,0.8-1.9,1.9-1.9h39.3c1,0,1.9,0.8,1.9,1.9v9.1
			C109,160.4,108.2,161.2,107.1,161.2z"/>
	</g>
	<g>
		<path class="st7" d="M107.9,177.6H58.8c-1,0-1.9-0.8-1.9-1.9v-4.5c0-1,0.8-1.9,1.9-1.9h49.1c1,0,1.9,0.8,1.9,1.9v4.5
			C109.8,176.8,108.9,177.6,107.9,177.6z"/>
	</g>
	<g>
		<path class="st8" d="M110.7,169.3H64.9c-1,0-1.9-0.8-1.9-1.9v-4.5c0-1,0.8-1.9,1.9-1.9h45.8c1,0,1.9,0.8,1.9,1.9v4.5
			C112.6,168.5,111.7,169.3,110.7,169.3z"/>
	</g>
	<g>
		<path class="st8" d="M110.5,185.5h-51c-1,0-1.9-0.8-1.9-1.9v-4.5c0-1,0.8-1.9,1.9-1.9h51c1,0,1.9,0.8,1.9,1.9v4.5
			C112.4,184.7,111.5,185.5,110.5,185.5z"/>
	</g>
	<g>
		<path class="st6" d="M102.8,137.4H71.4c-1,0-1.9-0.8-1.9-1.9v-3.9c0-1,0.8-1.9,1.9-1.9h31.4c1,0,1.9,0.8,1.9,1.9v3.9
			C104.7,136.5,103.9,137.4,102.8,137.4z"/>
	</g>
	<g>
		<path class="st0" d="M108.5,169.3H62.8c-1,0-1.9-0.8-1.9-1.9v-4.5c0-1,0.8-1.9,1.9-1.9h45.8c1,0,1.9,0.8,1.9,1.9v4.5
			C110.4,168.5,109.6,169.3,108.5,169.3z"/>
	</g>
	<g>
		<path class="st8" d="M105,148.5H70.6c-1,0-1.9-0.8-1.9-1.9v-7.4c0-1,0.8-1.9,1.9-1.9H105c1,0,1.9,0.8,1.9,1.9v7.4
			C106.9,147.7,106,148.5,105,148.5z"/>
	</g>
	<g>
		<path class="st7" d="M105,161.2H65.6c-1,0-1.9-0.8-1.9-1.9v-9.1c0-1,0.8-1.9,1.9-1.9H105c1,0,1.9,0.8,1.9,1.9v9.1
			C106.9,160.4,106,161.2,105,161.2z"/>
	</g>
	<g>
		<path class="st0" d="M108.4,185.5h-51c-1,0-1.9-0.8-1.9-1.9v-4.5c0-1,0.8-1.9,1.9-1.9h51c1,0,1.9,0.8,1.9,1.9v4.5
			C110.2,184.7,109.4,185.5,108.4,185.5z"/>
	</g>
	<g>
		<path class="st7" d="M100.7,137.4H69.2c-1,0-1.9-0.8-1.9-1.9v-3.9c0-1,0.8-1.9,1.9-1.9h31.4c1,0,1.9,0.8,1.9,1.9v3.9
			C102.6,136.5,101.7,137.4,100.7,137.4z"/>
	</g>
	<g>
		<path class="st0" d="M102.9,148.5H68.5c-1,0-1.9-0.8-1.9-1.9v-7.4c0-1,0.8-1.9,1.9-1.9h34.4c1,0,1.9,0.8,1.9,1.9v7.4
			C104.7,147.7,103.9,148.5,102.9,148.5z"/>
	</g>
	<g>
		<g>
			<g>
				<g>
					<path class="st1" d="M113.3,167.5c0,0,6.7,1.8,4.1,4.6c-2.6,2.8-15.1,2.4-15.8-1.5C100.8,166.8,113.3,167.5,113.3,167.5z"/>
				</g>
			</g>
		</g>
	</g>
	<g>
		<g>
			<g>
				<g>
					<path class="st1" d="M113.4,161.8c0,0,6.7,1.8,4.1,4.6s-15.1,2.4-15.8-1.5C100.9,161.1,113.4,161.8,113.4,161.8z"/>
				</g>
			</g>
		</g>
	</g>
	<g>
		<g>
			<g>
				<g>
					<path class="st1" d="M110.1,156.5c1.6-0.3,3.2-0.2,4.6,0.4c1.3,0.5,2.4,1.4,1.4,2.8c-1.8,2.8-12.8,4.3-14,1.1
						C101.3,158.4,107.1,157.1,110.1,156.5z"/>
				</g>
			</g>
		</g>
	</g>
	<g>
		<path d="M104.6,162.5c-0.3,0-0.5-0.2-0.5-0.5c0-0.3,0.2-0.5,0.5-0.5l8.7-0.2c0.3,0,0.5,0.2,0.5,0.5c0,0.3-0.2,0.5-0.5,0.5
			L104.6,162.5C104.7,162.5,104.7,162.5,104.6,162.5z"/>
	</g>
	<g>
		<path d="M104.6,169c-0.3,0-0.5-0.2-0.5-0.5c0-0.3,0.2-0.5,0.5-0.5l8.7-0.6c0.3,0,0.5,0.2,0.5,0.5c0,0.3-0.2,0.5-0.5,0.5L104.6,169
			C104.7,169,104.7,169,104.6,169z"/>
	</g>
	<g>
		<g>
			<g>
				<g>
					<path class="st1" d="M69.1,191.1c0,0-2.7,6.4-5.1,3.5c-2.4-2.9-0.5-15.2,3.5-15.5C71.4,178.9,69.1,191.1,69.1,191.1z"/>
				</g>
			</g>
		</g>
	</g>
	<g>
		<g>
			<g>
				<g>
					<path class="st1" d="M74.8,192c0,0-2.7,6.4-5.1,3.5c-2.4-2.9-0.5-15.2,3.5-15.5C77.1,179.7,74.8,192,74.8,192z"/>
				</g>
			</g>
		</g>
	</g>
	<g>
		<g>
			<g>
				<g>
					<path class="st1" d="M80.4,189.4c0.1,1.6-0.2,3.2-1,4.5c-0.7,1.2-1.6,2.2-2.9,1.1c-2.6-2.2-2.7-13.2,0.7-14
						C79.7,180.4,80.3,186.3,80.4,189.4z"/>
				</g>
			</g>
		</g>
	</g>
	<g>
		<path d="M68.7,192.6C68.6,192.6,68.6,192.6,68.7,192.6c-0.3,0-0.5-0.3-0.5-0.6l1.1-8.2c0-0.3,0.3-0.5,0.6-0.4
			c0.3,0,0.5,0.3,0.4,0.6l-1.1,8.2C69.1,192.4,68.9,192.6,68.7,192.6z"/>
	</g>
	<g>
		<path d="M75.2,192.7c-0.3,0-0.5-0.3-0.5-0.5l0.4-8c0-0.3,0.3-0.5,0.5-0.5c0.3,0,0.5,0.2,0.5,0.5l-0.4,8
			C75.7,192.5,75.5,192.7,75.2,192.7z"/>
	</g>
	<g>
		<path class="st5" d="M106.9,302c-0.1,0-0.3-0.1-0.4-0.2c-0.2-0.2-0.2-0.5,0-0.7l4-3.5c0.2-0.2,0.5-0.2,0.7,0
			c0.2,0.2,0.2,0.5,0,0.7l-4,3.5C107.1,301.9,107,302,106.9,302z"/>
	</g>
	<g>
		<path class="st5" d="M59.6,306.1h-5.1c-0.3,0-0.5-0.2-0.5-0.5s0.2-0.5,0.5-0.5h5.1c0.3,0,0.5,0.2,0.5,0.5S59.9,306.1,59.6,306.1z"
			/>
	</g>
</g>
<g>
	<g>
		<path d="M501.8,93.9c0,0,9.4-4.2,14.8,3.5c5.4,7.6,5.8,27,5.8,27l-16.8,0.6L501.8,93.9z"/>
	</g>
	<g>
		<path d="M492.1,94.7c0,0-6.3-6.5-12.6,0.4c-6.3,6.9-8.2,27.9-8.2,27.9l16.1,1.8L492.1,94.7z"/>
	</g>
	<g>
		<path class="st0" d="M483,185.3h32c5.7,0,10.3-4.6,10.3-10.3v-43.5c0-5.7-4.6-10.3-10.3-10.3h-32c-5.7,0-10.3,4.6-10.3,10.3V175
			C472.7,180.7,477.3,185.3,483,185.3z"/>
	</g>
	<g>
		<polygon class="st1" points="503.5,295.8 507.1,310.9 526.4,304.4 523.3,289 		"/>
	</g>
	<g>
		<polygon class="st1" points="460.9,293.5 456.8,308.5 476.9,312.1 481.6,297.1 		"/>
	</g>
	<g>
		<path class="st2" d="M472,188.6l-26.1,104l40.3,9.1l3.4-20.3l6.4,21.7l39-10.5c0,0-6.1-60.5-8.8-79.5c-2.2-15.9-6.1-25.2-6.1-25.2
			L472,188.6z"/>
	</g>
	<g>
		<path class="st9" d="M451.1,300l-0.2,0.1C450.9,300.1,450.9,300.1,451.1,300z"/>
	</g>
	<g>
		<path class="st10" d="M482.4,323c-0.1,3.4-0.5,5.8-1.5,6c-4.2,0.8-45.9,2.8-48,2.2c-2.2-0.6-8.8-0.9-8.7-5c0-0.8,0.3-1.5,0.8-2.2
			c2.1-2.8,7.3-4.6,7.3-4.6l23.4-13.9c0,0,0.1-1.1,0.2-2.4c0.1-1.6,1.8-2.5,3.2-1.7l10.5,5.5l9.9-4.3c0.8-0.5,1.8,0,1.9,0.9
			C481.8,307.8,482.6,316.9,482.4,323z"/>
	</g>
	<g>
		<path class="st10" d="M489.6,278.8c-0.3,0-0.5-0.2-0.5-0.5l-2.1-67.2l-12.4-3.6c-0.3-0.1-0.4-0.4-0.3-0.6c0.1-0.3,0.4-0.4,0.6-0.3
			l12.7,3.7c0.2,0.1,0.4,0.2,0.4,0.5l2.1,67.6C490.1,278.6,489.9,278.8,489.6,278.8C489.6,278.8,489.6,278.8,489.6,278.8z"/>
	</g>
	<g>
		<path class="st10" d="M494,292.6c-0.2,0-0.4-0.1-0.5-0.4c-0.1-0.3,0.1-0.5,0.3-0.6l38.3-11.1c0.3-0.1,0.5,0.1,0.6,0.3
			c0.1,0.3-0.1,0.5-0.3,0.6l-38.3,11.1C494.1,292.6,494.1,292.6,494,292.6z"/>
	</g>
	<g>
		<path class="st10" d="M486.4,291.6C486.4,291.6,486.3,291.6,486.4,291.6l-37.6-7.2c-0.3-0.1-0.4-0.3-0.4-0.6
			c0.1-0.3,0.3-0.4,0.6-0.4l37.5,7.2c0.3,0.1,0.4,0.3,0.4,0.6C486.8,291.4,486.6,291.6,486.4,291.6z"/>
	</g>
	<g>
		<path class="st4" d="M482.4,323c-0.1,3.4-0.5,5.8-1.5,6c-4.2,0.8-45.9,2.8-48,2.2c-2.2-0.6-8.8-0.9-8.7-5c0-0.8,0.3-1.5,0.8-2.2
			c2.2,0.3,8.5,1,18.2,1C453.7,325.2,476.2,323.5,482.4,323z"/>
	</g>
	<g>
		<path class="st2" d="M456,311.5c-0.1,0-0.2,0-0.3-0.1l-4.7-2.9c-0.2-0.1-0.3-0.5-0.2-0.7c0.1-0.2,0.5-0.3,0.7-0.2l4.7,2.9
			c0.2,0.1,0.3,0.5,0.2,0.7C456.4,311.4,456.2,311.5,456,311.5z"/>
	</g>
	<g>
		<path class="st10" d="M532.3,317.3c0.8,3.3,1.1,5.8,0.2,6.2c-3.8,1.9-43.4,15.1-45.6,15.2c-2.2,0.1-8.7,1.5-9.7-2.4
			c-0.2-0.8-0.1-1.6,0.2-2.4c1.2-3.3,5.8-6.4,5.8-6.4l18.7-19.8c0,0-0.2-1.1-0.5-2.3c-0.3-1.5,1.1-2.9,2.6-2.5l11.6,2.5l8.4-6.9
			c0.6-0.7,1.7-0.5,2.1,0.4C527.6,302.8,530.8,311.4,532.3,317.3z"/>
	</g>
	<g>
		<path class="st4" d="M532.3,317.3c0.8,3.3,1.1,5.8,0.2,6.2c-3.8,1.9-43.4,15.1-45.6,15.2c-2.2,0.1-8.7,1.5-9.7-2.4
			c-0.2-0.8-0.1-1.6,0.2-2.4c2.2-0.3,8.4-1.4,17.8-3.9C505.2,327.2,526.4,319.5,532.3,317.3z"/>
	</g>
	<g>
		<path class="st2" d="M503.7,313.4c0,0-0.1,0-0.1,0l-5.3-1.5c-0.3-0.1-0.4-0.4-0.3-0.6c0.1-0.3,0.3-0.4,0.6-0.3l5.3,1.5
			c0.3,0.1,0.4,0.4,0.3,0.6C504.1,313.3,503.9,313.4,503.7,313.4z"/>
	</g>
	<g>
		<path class="st3" d="M473.5,184.6c0,0-16.1,2.5-21.3-15.3s20.5-40.4,20.5-40.4L473.5,184.6z"/>
	</g>
	<g>
		<path class="st4" d="M507.1,186.8c0,0-18.9,4-28.4-0.4c-9.5-4.4-4.1-29.5-4.1-29.5s5.2-34.4,12.5-35.1c7.4-0.7,13.9,0.2,13.9,0.2
			l9.1,29.2L507.1,186.8z"/>
	</g>
	<g>
		<path class="st3" d="M490.2,120.9c0,0-1.2,0.3-3.1,0.9l12.7,0.8c0,0,1.7,16.8,2.3,36.1c0.4,13.7,0,26-0.3,32l17.9-0.4
			c0,0,1.1-57.3-5.7-63.2c-6.8-5.9-16.1-6-16.1-6L490.2,120.9z"/>
	</g>
	<g>
		<path class="st3" d="M470.7,191.4l10.1-0.2c-0.6-7.3-0.4-20.4,1.3-37.8c2.3-22.1,3.9-30.8,4.1-31.1c-4.8,1.6-13,4.5-14.6,8.1
			C469.3,135.4,470.7,191.4,470.7,191.4z"/>
	</g>
	<g>
		<polygon class="st11" points="482.9,157.2 462.1,168.3 476.9,201.4 500.3,193.9 		"/>
	</g>
	<g>
		<polygon class="st0" points="479.5,159.1 458.6,170.2 471.9,203.1 496.4,194.8 		"/>
	</g>
	<g>
		<g>
			<path class="st1" d="M505.9,171.5c0,0-18-2.4-22.2-0.5c-4.3,1.9,0.6,15.7,2.2,18.2c1.6,2.5,19.4-2.4,19.4-2.4l4.6-7.5
				L505.9,171.5z"/>
		</g>
	</g>
	<g>
		<g>
			<path class="st1" d="M483.6,171c0,0-10.1,7.6-10.1,11.9c0,4.4,12.3-5.4,12.3-5.4L483.6,171z"/>
		</g>
	</g>
	<g>
		<g>
			<path class="st1" d="M492.3,188.2c0,0,9.2,1.5,6.6,4s-12-0.8-13.1-3c-1.1-2.2,5.3-5.3,5.3-5.3L492.3,188.2z"/>
		</g>
	</g>
	<g>
		<path d="M493.3,189.6c-0.3,0-0.5-0.2-0.5-0.5c0-0.3,0.2-0.5,0.5-0.5l1.9-0.1l-1-1.3c-0.2-0.2-0.1-0.5,0.1-0.7
			c0.2-0.2,0.5-0.1,0.7,0.1l1.6,2c0.1,0.1,0.1,0.3,0.1,0.5c-0.1,0.2-0.2,0.3-0.4,0.3L493.3,189.6
			C493.3,189.6,493.3,189.6,493.3,189.6z"/>
	</g>
	<g>
		<path d="M482.2,179.9c-0.1,0-0.2,0-0.3-0.1c-0.2-0.2-0.2-0.5-0.1-0.7c0.5-0.6,2.8-3.5,3.9-3.9c0.3-0.1,0.5,0,0.7,0.3
			c0.1,0.3,0,0.5-0.3,0.7c-0.7,0.3-2.5,2.4-3.5,3.6C482.5,179.8,482.4,179.9,482.2,179.9z"/>
	</g>
	<g>
		<path d="M483.7,184.8c-0.1,0-0.3,0-0.4-0.1c-0.2-0.2-0.2-0.5,0-0.7l4.8-4.8c0.2-0.2,0.5-0.2,0.7,0c0.2,0.2,0.2,0.5,0,0.7l-4.8,4.8
			C484,184.7,483.9,184.8,483.7,184.8z"/>
	</g>
	<g>
		<path class="st0" d="M484.2,122.9c0,0-5.4,8-8.6,19.4c-3.2,11.3-5.3,20.1-5.3,20.1s-3.9-19.7,3.2-33.4
			C475.6,124.7,484.2,122.9,484.2,122.9z"/>
	</g>
	<g>
		<path class="st1" d="M470.4,135.9c0,0,7.1,8.7,6.8,12.1s-2.9,1.7-2.9,1.7s1.6,3.9-0.1,4.7c-1.7,0.8-2.9-1.7-2.9-1.7s0,3.3-2,3.4
			c-2,0.1-10.1-8.9-10.3-11.6c-0.2-2.7,3.4-2,3.4-2s-0.9-4.2,0.7-5s4,1.3,4,1.3S466.8,133.2,470.4,135.9z"/>
	</g>
	<g>
		<path class="st1" d="M469.2,153.4c0,0,1.7,8.9-3.6,8.8c-11.1-0.1-6.6-17.8-6.6-17.8L469.2,153.4z"/>
	</g>
	<g>
		<path d="M474.2,150.2c-0.2,0-0.3-0.1-0.4-0.2l-6-10c-0.1-0.2-0.1-0.5,0.2-0.7c0.2-0.1,0.5-0.1,0.7,0.2l6,10
			c0.1,0.2,0.1,0.5-0.2,0.7C474.4,150.2,474.3,150.2,474.2,150.2z"/>
	</g>
	<g>
		<path d="M470.2,153.2c-0.2,0-0.3-0.1-0.4-0.2l-5.8-9c-0.1-0.2-0.1-0.5,0.1-0.7c0.2-0.1,0.5-0.1,0.7,0.1l5.8,9
			c0.1,0.2,0.1,0.5-0.1,0.7C470.4,153.2,470.3,153.2,470.2,153.2z"/>
	</g>
	<g>
		<g>
			<g>
				<g>
					<g>
						<path class="st1" d="M499.6,112.7l0.3,10.5c0,0-1.8,3.1-7.9,3.8c-4.6,0.5-6.1-1.8-6.1-1.8l0.8-9.2l11-2.8L499.6,112.7z"/>
					</g>
				</g>
			</g>
		</g>
	</g>
	<g>
		<g>
			<g>
				<g>
					<g>
						<path d="M497.8,113.2c0,0.3-0.1,0.6-0.3,1c-2.2,5.3-8.6,6.7-11.2,7l0.5-5.2L497.8,113.2z"/>
					</g>
				</g>
			</g>
		</g>
	</g>
	<g>
		<g>
			<g>
				<g>
					<g>
						<path class="st1" d="M483.6,92.1c0,0-5.1,13.4-2.7,20.6c2.4,7.3,9.1,5.8,13,4.2c3.9-1.6,5.7-4.2,5.7-4.2s3.8,1.1,6.1-2.5
							c2.3-3.6,0.6-7.5-1.6-8.3c-2.2-0.8-4.7,0.9-4.7,0.9l1.8-3.9C501.4,98.8,492,79.9,483.6,92.1z"/>
					</g>
				</g>
			</g>
		</g>
	</g>
	<g>
		<path d="M500.3,108.4c-0.1,0-0.3-0.1-0.4-0.2c-0.2-0.2-0.2-0.5,0-0.7l4-3.7c0.2-0.2,0.5-0.2,0.7,0c0.2,0.2,0.2,0.5,0,0.7l-4,3.7
			C500.5,108.3,500.4,108.4,500.3,108.4z"/>
	</g>
	<g>
		<path d="M504.5,108.1c-0.1,0-0.1,0-0.2,0l-2.7-1.1c-0.3-0.1-0.4-0.4-0.3-0.7c0.1-0.3,0.4-0.4,0.7-0.3l2.7,1.1
			c0.3,0.1,0.4,0.4,0.3,0.7C504.9,108,504.7,108.1,504.5,108.1z"/>
	</g>
	<g>
		<path d="M499.6,102.7c0,0-4.6-0.2-7.7-3.9c-3.1-3.6-4.6-7.4-4.6-7.4s-1.9,0.4-3.1,2c-0.9,1.2-1.9,2.9-1.9,2.9s-0.4-5.3,2.2-8
			s4.9-1.9,4.9-1.9s5.7-3.6,11.9,1.4c6.2,5,3.9,14.7,3.9,14.7S502,101.3,499.6,102.7z"/>
	</g>
	<g>
		<path d="M484.5,108.3c-0.2,0-0.4-0.1-0.5-0.4c-0.9-3,1.3-5,1.4-5.1c0.2-0.2,0.5-0.2,0.7,0.1c0.2,0.2,0.2,0.5,0,0.7
			c-0.1,0.1-1.9,1.7-1.1,4.1c0.1,0.3-0.1,0.5-0.3,0.6C484.6,108.2,484.6,108.3,484.5,108.3z"/>
	</g>
	<g>
		<path d="M482.3,103.7C482.3,103.7,482.2,103.7,482.3,103.7c-0.3,0-0.5-0.3-0.5-0.6l0.5-3.2l-0.5-0.6c-0.2-0.2-0.2-0.5,0-0.7
			c0.2-0.2,0.5-0.2,0.7,0l0.7,0.7c0.1,0.1,0.2,0.3,0.1,0.4l-0.5,3.5C482.7,103.5,482.5,103.7,482.3,103.7z"/>
	</g>
	<g>
		<path d="M489.9,104.3C489.8,104.3,489.8,104.3,489.9,104.3c-0.3,0-0.5-0.3-0.5-0.6l0.4-3.3l-0.7-0.8c-0.2-0.2-0.1-0.5,0.1-0.7
			c0.2-0.2,0.5-0.1,0.7,0.1l0.8,1c0.1,0.1,0.1,0.2,0.1,0.4l-0.4,3.5C490.3,104.1,490.1,104.3,489.9,104.3z"/>
	</g>
	<g>
		<path d="M484.3,97.4h-2.2c-0.3,0-0.5-0.2-0.5-0.5c0-0.3,0.2-0.5,0.5-0.5h2.2c0.3,0,0.5,0.2,0.5,0.5
			C484.8,97.2,484.6,97.4,484.3,97.4z"/>
	</g>
	<g>
		<path d="M492,97.9C492,97.9,492,97.9,492,97.9l-3.7-0.5c-0.3,0-0.5-0.3-0.4-0.6c0-0.3,0.3-0.5,0.6-0.4l3.6,0.5
			c0.3,0,0.5,0.3,0.4,0.6C492.5,97.7,492.3,97.9,492,97.9z"/>
	</g>
	<g>
		<path d="M488,113.2c-1.1,0-2.3-0.9-2.5-1.1c-0.1-0.1-0.2-0.3-0.2-0.5c0-0.2,0.1-0.3,0.3-0.4l4.1-1.7c0.2-0.1,0.4,0,0.5,0.1
			c0.1,0.1,0.2,0.3,0.2,0.5c-0.1,0.2-0.5,2.5-1.8,3C488.4,113.2,488.2,113.2,488,113.2z M486.9,111.9c0.5,0.3,1,0.5,1.4,0.3
			c0.3-0.1,0.7-0.7,0.9-1.3L486.9,111.9z"/>
	</g>
	<g>
		<path class="st5" d="M505,102.1c-0.1,0-0.2,0-0.2-0.1c-0.2-0.1-0.3-0.4-0.2-0.7c1.7-3.4,0-7.2,0-7.2c-0.1-0.2,0-0.5,0.2-0.7
			c0.2-0.1,0.5,0,0.7,0.2c0.1,0.2,2,4.2,0,8.1C505.4,102,505.2,102.1,505,102.1z"/>
	</g>
	<g>
		<path class="st5" d="M491.9,127.5c-3.6,0-6.2-1.8-6.2-1.9c-0.2-0.2-0.3-0.5-0.1-0.7c0.2-0.2,0.5-0.3,0.7-0.1
			c0.3,0.2,6.8,4.8,13.4-1.9c0.2-0.2,0.5-0.2,0.7,0c0.2,0.2,0.2,0.5,0,0.7C497.4,126.6,494.4,127.5,491.9,127.5z"/>
	</g>
	<g>
		<path class="st0" d="M500,120.8c0,0-0.5,16.2,1.7,26.6c2.2,10.4,8.1,22.2,8.1,22.2l6.3-3.7c0,0-4.4-13.7-6-19.4
			c-1.5-5.6-3.2-23.6-3.2-23.6S501.3,121.1,500,120.8z"/>
	</g>
	<g>
		<path class="st3" d="M513.5,126.5c0,0,27.4,18.4,27.2,43.1c-0.2,24.7-38.4,21.8-38.4,21.8l-4.6-25l18.4-5.8L513.5,126.5z"/>
	</g>
	<g>
		<path class="st5" d="M515,161.5c-0.1,0-0.2,0-0.3-0.1c-0.2-0.1-0.2-0.3-0.2-0.5c0.2-0.7,1.9-6.5,4.3-7.2c0.4-0.1,1.1-0.1,1.8,0.5
			c0.6,0.5,0.8,1.1,0.7,1.8c-0.3,2.5-5.5,5.2-6.1,5.5C515.2,161.4,515.1,161.5,515,161.5z M519.3,154.6c-0.1,0-0.2,0-0.2,0
			c-1.2,0.3-2.5,3.1-3.2,5.3c1.8-1,4.3-2.8,4.5-4.1c0-0.2,0-0.5-0.4-0.9C519.7,154.7,519.5,154.6,519.3,154.6z"/>
	</g>
</g>
<g>
	<g>
		<path class="st4" d="M726.9,181.9l31.4,1c5.6,0.2,10.2-4.2,10.4-9.8l1.4-42.6c0.2-5.6-4.2-10.2-9.8-10.4l-31.4-1
			c-5.6-0.2-10.2,4.2-10.4,9.8l-1.4,42.6C717,177.1,721.4,181.7,726.9,181.9z"/>
	</g>
	<g>
		<g>
			<path class="st1" d="M796.5,105.4c0,0,5.6-10.5,6.5-17.7c0.8-7.2-0.8-9.9-2-10.2c-1.2-0.3-2.9,4.1-2.9,4.1s0.6-6.8-2.1-7.4
				c-2.7-0.6-3.9,5.4-3.9,5.4s-0.7-5-3-4.2c-2.2,0.8-3.2,9.8-3.2,9.8s-2.3-6.3-4-5.7s-2.8,11.3-1.7,14.3s4.1,6.8,4.1,6.8
				L796.5,105.4z"/>
		</g>
	</g>
	<g>
		<path class="st1" d="M798.1,81.7c0,0,3.3-8.5,5.2-2.2c1.4,4.7-0.4,13.5-2.7,13.4c-2.2-0.1-3.4-4.9-3.4-4.9s-1.1,3.5-3.8,2.5
			c-2.5-0.9-2.6-5.1-2.6-5.1s-0.5,4.2-3.3,3.1c-4.1-1.6-0.8-12.7,1.4-14.1c2.9-1.8,2.7,3.6,2.7,3.6s2.7-5.8,5.3-3.4
			C799.5,77,798.1,81.7,798.1,81.7z"/>
	</g>
	<g>
		<path d="M790.9,97.7c-0.3,0-0.5-0.2-0.5-0.5c0-9.7-4.9-12-5-12c-0.3-0.1-0.4-0.4-0.3-0.7c0.1-0.3,0.4-0.4,0.7-0.3
			c0.2,0.1,5.6,2.6,5.6,13C791.4,97.5,791.2,97.7,790.9,97.7z"/>
	</g>
	<g>
		<path d="M800.3,93.2c-0.1,0-0.1,0-0.2,0c-0.8,0-1.8-0.5-2.6-2.4c-0.6-1.3-0.8-2.9-0.5-4.5l0.7-4.8c0-0.3,0.3-0.5,0.6-0.4
			c0.3,0,0.5,0.3,0.4,0.6l-0.7,4.8c-0.2,1.4,0,2.8,0.5,3.9c0.5,1.1,1.1,1.7,1.8,1.8c1.3,0.1,1.6-1,1.7-1.1c0.1-0.3,0.4-0.4,0.6-0.3
			c0.3,0.1,0.4,0.3,0.4,0.6C802.6,92.1,801.9,93.2,800.3,93.2z"/>
	</g>
	<g>
		<path d="M794,91c-0.2,0-0.4,0-0.7-0.1c-3.3-0.5-3.1-5.4-3-5.6l0.9-7.4c0-0.3,0.3-0.5,0.6-0.4c0.3,0,0.5,0.3,0.4,0.6l-0.9,7.4
			c0,0-0.2,4.1,2.2,4.5c2.4,0.4,3.2-2.1,3.2-2.2c0.1-0.3,0.4-0.4,0.6-0.3c0.3,0.1,0.4,0.4,0.3,0.6C797.4,89.2,796.2,91,794,91z"/>
	</g>
	<g>
		<path d="M789,88.9c-0.3,0-0.5-0.2-0.5-0.5c0-0.3,0.2-0.5,0.5-0.5c0.8,0,1.2-1.7,1.3-2.6c0-0.3,0.3-0.5,0.5-0.4
			c0.3,0,0.5,0.3,0.5,0.5C791.3,85.8,790.9,88.8,789,88.9C789.1,88.9,789.1,88.9,789,88.9z"/>
	</g>
	<g>
		<path class="st0" d="M726.9,137.6c0,0-12.5-7.7-11-12.2c1.5-4.5,11-9.8,20.7-9.8c9.7,0,20.5,4.9,20.7,9.7
			C757.7,130.2,726.9,137.6,726.9,137.6z"/>
	</g>
	<g>
		<path class="st3" d="M702.7,312.2c-0.2,0-0.4-0.1-0.5-0.3c-1-2.8-4.1-10.1-6.5-11.1c-0.3-0.1-0.5-0.1-0.8,0
			c-0.2,0.1-0.3,0.2-0.4,0.5c-0.5,2,3.6,7.7,5.5,10c0.1,0.1,0.1,0.2,0.2,0.2c0.2,0.2,0.1,0.5-0.1,0.7c-0.2,0.2-0.5,0.1-0.7-0.1
			c0-0.1-0.1-0.1-0.2-0.2c-1.6-2-5.7-6.4-7.9-6.2c-0.3,0-0.6,0.1-0.9,0.8c-0.3,0.6-0.3,1.1,0,1.6c1,1.8,5.7,2.6,7.4,2.7
			c0.3,0,0.5,0.3,0.5,0.5c0,0.3-0.3,0.5-0.5,0.5c-0.7-0.1-6.7-0.7-8.1-3.2c-0.4-0.8-0.4-1.6,0-2.5c0.5-1,1.2-1.2,1.7-1.3
			c1.3-0.1,2.8,0.8,4.3,2c-1.3-2.1-2.3-4.3-2-5.7c0.1-0.5,0.5-1,1-1.2c0.5-0.2,1-0.2,1.5,0c3.2,1.4,6.7,10.7,7.1,11.7
			c0.1,0.3,0,0.5-0.3,0.6C702.9,312.2,702.8,312.2,702.7,312.2z"/>
	</g>
	<g>
		<path class="st3" d="M771.6,308.1c-0.2,0-0.4,0-0.6-0.1c-0.9-0.2-1.5-0.8-1.9-1.7c-0.4-1-0.1-1.7,0.2-2.2c0.7-1,2.5-1.6,4.4-1.9
			c-2.4-0.4-4.8-1.1-5.6-2.3c-0.3-0.5-0.4-1-0.2-1.5c0.2-0.5,0.5-0.9,1.1-1.1c3.1-1.5,12.4,2.1,13.4,2.5c0.3,0.1,0.4,0.4,0.3,0.6
			c-0.1,0.3-0.4,0.4-0.6,0.3c-2.7-1.1-10.3-3.7-12.6-2.6c-0.3,0.1-0.4,0.3-0.5,0.5c-0.1,0.2,0,0.4,0.1,0.6c1.2,1.7,8.2,2.4,11.1,2.5
			c0.1,0,0.2,0,0.3,0c0.3,0,0.5,0.2,0.5,0.5c0,0.3-0.2,0.5-0.5,0.5c-0.1,0-0.2,0-0.3,0c-2.6-0.1-8.6,0.1-9.9,1.8
			c-0.2,0.2-0.3,0.6-0.1,1.2c0.3,0.6,0.6,1,1.2,1.1c2,0.4,5.7-2.5,6.9-3.7c0.2-0.2,0.5-0.2,0.7,0c0.2,0.2,0.2,0.5,0,0.7
			C778.3,304.5,774.4,308.1,771.6,308.1z"/>
	</g>
	<g>
		<g>
			<path class="st0" d="M734.7,329.4c0,0.5-0.3,0.9-0.8,0.9l-54.2,4.4c-0.5,0-0.9-0.3-0.9-0.8l-0.4-4.9l0-0.1c0-0.4,0.3-0.8,0.7-0.9
				c0.3,0,0.5-0.2,0.7-0.5c0.1-0.1,0.1-0.3,0.1-0.5c-0.2-1.4-0.3-4.6,1.4-7.2c2.3-3.6,14.6-7.5,20-9.9c3.5-1.6,5.3-5.7,6.1-8.4
				c0.4-1.5,1.8-2.6,3.3-2.6c6.2-0.2,20.7-0.8,21.6-0.7c1.2,0.2,2.5,11.1,2.1,15.3c-0.4,4.3-1.3,9.2-1.3,9.2l1.4-0.3L734.7,329.4z"
				/>
		</g>
	</g>
	<g>
		<g>
			<path class="st0" d="M734.7,329.4c0,0.5-0.3,0.9-0.8,0.9l-54.2,4.4c-0.5,0-0.9-0.3-0.9-0.8l-0.4-4.9l0-0.1c0-0.4,0.3-0.8,0.7-0.9
				c0.3,0,0.5-0.2,0.7-0.5c15.3-1,53.3-4.8,53.3-4.8l1.4-0.3L734.7,329.4z"/>
		</g>
	</g>
	<g>
		<g>
			<path class="st0" d="M817,291.8c0.3,0.3,0.4,0.9,0,1.2l-36.6,40.2c-0.3,0.4-0.9,0.4-1.2,0.1l-3.7-3.3l0,0
				c-0.3-0.3-0.3-0.8-0.1-1.1c0.2-0.2,0.2-0.5,0.1-0.8c0-0.1-0.1-0.3-0.3-0.4c-1.1-0.9-3.3-3.2-3.9-6.3c-0.7-4.2,5.5-15.4,7.8-20.9
				c1.5-3.6-0.1-7.8-1.3-10.3c-0.7-1.4-0.4-3.1,0.6-4.2c4.3-4.4,14.5-14.7,15.3-15.2c1-0.6,9.4,6.4,12,9.8c2.6,3.4,5.4,7.6,5.4,7.6
				l0.9-1.2L817,291.8z"/>
		</g>
	</g>
	<g>
		<g>
			<path class="st0" d="M817,291.8c0.3,0.3,0.4,0.9,0,1.2l-36.6,40.2c-0.3,0.4-0.9,0.4-1.2,0.1l-3.7-3.3l0,0
				c-0.3-0.3-0.3-0.8-0.1-1.1c0.2-0.2,0.2-0.5,0.1-0.8c10.4-11.2,35.6-39.9,35.6-39.9l0.9-1.2L817,291.8z"/>
		</g>
	</g>
	<g>
		<g>
			<path class="st7" d="M707.7,181.8c0,0-14.4,34.4-18.3,58c-3.9,23.6,9.6,61.9,9.6,61.9l41.5-0.5c0,0-7.8-38-9.2-49.5
				c-1.1-12.7,6.4-67.7,6.4-67.7L707.7,181.8z"/>
		</g>
	</g>
	<g>
		<g>
			<path class="st7" d="M755.9,181.2c0,0,7.8,30.8,23.4,56.5s23,33.1,23,33.1l-32.6,25.9c0,0-37.3-38.3-41.9-64.3
				c-4.6-26.1-4.3-49.5-4.3-49.5L755.9,181.2z"/>
		</g>
	</g>
	<g>
		<g>
			<path class="st1" d="M676.3,102.1c0,0-1.4-11.8,0.5-18.8c1.9-7,4.3-8.9,5.6-8.7c1.2,0.2,1.2,4.9,1.2,4.9s2-6.6,4.7-6.1
				c2.7,0.5,1.7,6.5,1.7,6.5s2.5-4.3,4.3-2.8c1.8,1.5-0.6,10.3-0.6,10.3s4.4-5,5.9-3.8c1.4,1.2-1.6,11.5-3.7,13.9
				c-2.1,2.4-6.3,4.9-6.3,4.9L676.3,102.1z"/>
		</g>
	</g>
	<g>
		<path class="st4" d="M754.2,194.2c-6.2,0-9.1-6.3-9.1-6.4c-0.1-0.3,0-0.5,0.3-0.7c0.3-0.1,0.5,0,0.7,0.3c0.1,0.3,3.4,7.5,10.7,5.5
			c0.3-0.1,0.5,0.1,0.6,0.3c0.1,0.3-0.1,0.5-0.3,0.6C755.9,194.1,755,194.2,754.2,194.2z"/>
	</g>
	<g>
		<path class="st4" d="M769.1,233.8c-0.3,0-0.6-0.1-0.8-0.3c-0.8-0.6-0.9-1.2-0.8-1.6c0.3-2,4.9-3.7,5.8-4c0.2-0.1,0.4,0,0.5,0.1
			c0.1,0.2,0.2,0.4,0.1,0.6c-0.2,0.5-2.5,4.7-4.4,5.1C769.3,233.8,769.2,233.8,769.1,233.8z M772.3,229.4c-1.8,0.8-3.8,1.9-3.9,2.7
			c0,0.1-0.1,0.3,0.4,0.7c0.1,0.1,0.2,0.1,0.4,0.1C770.1,232.6,771.4,230.9,772.3,229.4z"/>
	</g>
	<g>
		<path class="st4" d="M763.9,290.2c-0.1,0-0.3-0.1-0.4-0.2c-0.2-0.2-0.1-0.5,0.1-0.7l32.2-26.6c0.2-0.2,0.5-0.1,0.7,0.1
			c0.2,0.2,0.1,0.5-0.1,0.7l-32.2,26.6C764.1,290.2,764,290.2,763.9,290.2z"/>
	</g>
	<g>
		<path class="st4" d="M731.4,241.4c-0.2,0-0.4-0.1-0.5-0.3c-4.7-10.1-6-33.1-6.2-36.4l-11.3-3.4c-0.3-0.1-0.4-0.4-0.3-0.6
			c0.1-0.3,0.4-0.4,0.6-0.3l11.7,3.5c0.2,0.1,0.3,0.2,0.4,0.5c0,0.3,1.3,25.9,6.1,36.4c0.1,0.3,0,0.5-0.2,0.7
			C731.5,241.3,731.4,241.4,731.4,241.4z"/>
	</g>
	<g>
		<path class="st4" d="M697.7,294.3c-0.3,0-0.5-0.2-0.5-0.5c0-0.3,0.2-0.5,0.5-0.5l40.8-0.8c0.3,0,0.5,0.2,0.5,0.5
			c0,0.3-0.2,0.5-0.5,0.5L697.7,294.3C697.7,294.3,697.7,294.3,697.7,294.3z"/>
	</g>
	<g>
		<path class="st3" d="M679.7,328c-0.3,0-0.5-0.2-0.5-0.5c0-0.3,0.2-0.5,0.5-0.5l53.3-4.8c0.3,0,0.5,0.2,0.5,0.5
			c0,0.3-0.2,0.5-0.5,0.5L679.7,328C679.7,328,679.7,328,679.7,328z"/>
	</g>
	<g>
		<path class="st3" d="M775.5,328.5c-0.1,0-0.2,0-0.3-0.1c-0.2-0.2-0.2-0.5,0-0.7l35.6-39.9c0.2-0.2,0.5-0.2,0.7,0
			c0.2,0.2,0.2,0.5,0,0.7l-35.6,39.9C775.8,328.5,775.6,328.5,775.5,328.5z"/>
	</g>
	<g>
		<path class="st10" d="M698.6,96.9c0,0-5.4,17.2,3.3,24.2c8.7,7,21.7,3.9,24.5,3.7c2.9-0.2,11-0.9,16.5,0.1s18.8,0.7,27.3-9.9
			c8.5-10.6,8.8-18.4,8.8-18.4l24.6,0.3c0,0,2,27.9-11.9,42.2c-9.8,10.1-29,13.8-29,13.8s-0.7,10.9-1.2,16.6s-5,14.2-5,14.2
			s-12,1.6-26.6,1.3c-14.6-0.2-22.9-1.7-22.9-1.7s-1.4-3.5-1.5-11.4c-0.1-8,1.2-18.6,1.2-18.6s-27.9-1.1-34.8-18.5
			c-6.9-17.4,2.7-38.8,2.7-38.8L698.6,96.9z"/>
	</g>
	<g>
		<path class="st12" d="M725.4,146.1c-0.1,0-0.1,0-0.2,0c-0.3-0.1-0.4-0.4-0.3-0.6l2.3-7c0.1-0.3,0.4-0.4,0.6-0.3
			c0.3,0.1,0.4,0.4,0.3,0.6l-2.3,7C725.8,145.9,725.6,146.1,725.4,146.1z"/>
	</g>
	<g>
		<path class="st12" d="M741.3,145.8c-0.2,0-0.4-0.2-0.5-0.4l-1.7-7.4c-0.1-0.3,0.1-0.5,0.4-0.6c0.3-0.1,0.5,0.1,0.6,0.4l1.7,7.4
			c0.1,0.3-0.1,0.5-0.4,0.6C741.4,145.8,741.3,145.8,741.3,145.8z"/>
	</g>
	<g>
		<path class="st12" d="M692.9,125.1c-0.4,0-0.8-0.2-1.1-0.6c-0.2-0.4-0.3-0.9-0.1-1.3c0.7-2.3,6-4.9,6.6-5.2c0.2-0.1,0.4,0,0.6,0.1
			c0.1,0.2,0.2,0.4,0.1,0.6C698.3,119.7,694.9,125.1,692.9,125.1z M697.1,119.7c-1.8,1-4.1,2.5-4.4,3.7c-0.1,0.3,0,0.4,0,0.5
			c0.1,0.1,0.2,0.1,0.2,0.1C693.7,124.1,695.5,122,697.1,119.7z"/>
	</g>
	<g>
		<path class="st12" d="M772.9,124.9c-2.8,0-5.4-5.7-5.7-6.4c-0.1-0.2,0-0.4,0.1-0.6c0.2-0.1,0.4-0.2,0.6,0c2,1.3,6.6,4.4,6.4,6.1
			c0,0.2-0.2,0.7-0.9,0.9C773.3,124.9,773.1,124.9,772.9,124.9z M769,119.8c1.2,2.2,2.9,4.5,4.2,4.1c0.1,0,0.2-0.1,0.2-0.1
			C773.4,123.3,771.5,121.5,769,119.8z"/>
	</g>
	<g>
		<path class="st1" d="M683.5,79.5c0,0,0-9.1-4-4c-3.1,3.9-4.6,12.7-2.4,13.4c2.1,0.7,5-3.3,5-3.3s-0.3,3.6,2.6,3.7
			c2.6,0.1,4.3-3.7,4.3-3.7s-1.1,4.1,1.9,4.1c4.4,0,5.4-11.5,3.9-13.6c-2-2.8-3.9,2.3-3.9,2.3s-0.4-6.4-3.6-5.1
			C683.9,74.6,683.5,79.5,683.5,79.5z"/>
	</g>
	<g>
		<path d="M684.5,97c-0.1,0-0.1,0-0.2,0c-0.3-0.1-0.4-0.4-0.3-0.6c3.8-9.6,9.7-10,9.9-10c0.3,0,0.5,0.2,0.5,0.5
			c0,0.3-0.2,0.5-0.5,0.5c-0.1,0-5.5,0.4-9.1,9.4C684.9,96.9,684.7,97,684.5,97z"/>
	</g>
	<g>
		<path d="M678.1,89.6c-0.3,0-0.5,0-0.7-0.1c-1.6-0.5-1.9-2-1.8-2.7c0-0.3,0.3-0.5,0.6-0.4c0.3,0,0.5,0.3,0.4,0.6
			c0,0.1-0.1,1.2,1.2,1.6c0.7,0.2,1.4-0.1,2.3-1c0.9-0.9,1.6-2.1,1.9-3.5l1.1-4.7c0.1-0.3,0.3-0.4,0.6-0.4c0.3,0.1,0.4,0.3,0.4,0.6
			l-1.1,4.7c-0.4,1.5-1.1,2.9-2.1,4C679.7,89.3,678.8,89.6,678.1,89.6z"/>
	</g>
	<g>
		<path d="M685.2,89.9c-0.2,0-0.4,0-0.7-0.1c-2.6-0.6-3.1-3-3-4.3c0-0.3,0.3-0.5,0.5-0.5c0.3,0,0.5,0.3,0.5,0.5
			c0,0.1-0.2,2.7,2.2,3.2c2.4,0.5,3.7-3.4,3.7-3.4l1.9-7.1c0.1-0.3,0.3-0.4,0.6-0.4c0.3,0.1,0.4,0.3,0.4,0.6l-1.9,7.2
			C689.3,86,688,89.9,685.2,89.9z"/>
	</g>
	<g>
		<path d="M689.5,89.6c-0.1,0-0.1,0-0.2,0c-1.7-0.8-0.9-3.7-0.8-4c0.1-0.3,0.3-0.4,0.6-0.3c0.3,0.1,0.4,0.4,0.3,0.6
			c-0.2,0.8-0.5,2.5,0.3,2.9c0.2,0.1,0.4,0.4,0.2,0.7C689.8,89.5,689.7,89.6,689.5,89.6z"/>
	</g>
	<g>
		<path class="st4" d="M705.6,169.2c0,0,1.6-13.4,6.1-25.1c5.2-13.6,9.1-20.8,10.7-23.4c0,0-0.1,0-0.1,0c-4.6-0.1-8.8,2.7-10.7,6.9
			c-1.7,3.7-3.6,8.7-4.9,14.7C703,158.5,705.6,169.2,705.6,169.2z"/>
	</g>
	<g>
		<path class="st4" d="M759.1,122.5c0,0-1.9,14.2-0.5,23.8c1.4,10.2,7.8,22.4,7.8,22.4v9.1c0,0-17.9-12.8-17.9-39.5
			c0-12.4,1.6-18.3,1.6-18.3S757.2,120.5,759.1,122.5z"/>
	</g>
	<g>
		<g>
			<g>
				<g>
					<path class="st1" d="M743.4,113.6l-0.3,9.6c0,0-2,2.7-8.3,3.1c-4.7,0.3-6.3-0.7-6.3-0.7l0.8-4.9l0.8-4.7l11.4-2.1L743.4,113.6z
						"/>
				</g>
			</g>
		</g>
	</g>
	<g>
		<g>
			<g>
				<g>
					<path d="M741.5,114c0,0.3-0.2,0.6-0.3,1c-2.5,5.3-9.3,6.2-12,6.4l0.9-5.3L741.5,114z"/>
				</g>
			</g>
		</g>
	</g>
	<g>
		<g>
			<g>
				<g>
					<path class="st1" d="M728.2,91.7c0,0-5.9,13.4-3.9,20.9c2.1,7.5,8.9,6.4,13,5c4.1-1.4,6-3.9,6-3.9s3.8,1.3,6.4-2.2
						c2.6-3.5,1-7.7-1.1-8.6c-2.2-1-4.8,0.6-4.8,0.6l2.1-3.9C745.9,99.5,737.5,79.7,728.2,91.7z"/>
				</g>
			</g>
		</g>
	</g>
	<g>
		<path d="M744.4,109.8c-0.1,0-0.2,0-0.3-0.1c-0.2-0.2-0.2-0.5,0-0.7l3.6-3.9c0.2-0.2,0.5-0.2,0.7,0c0.2,0.2,0.2,0.5,0,0.7l-3.6,3.9
			C744.7,109.7,744.5,109.8,744.4,109.8z"/>
	</g>
	<g>
		<path d="M748.3,108.7C748.2,108.7,748.2,108.7,748.3,108.7l-2.6-0.4c-0.3,0-0.5-0.3-0.4-0.6c0-0.3,0.3-0.5,0.6-0.4l2.5,0.4
			c0.3,0,0.5,0.3,0.4,0.6C748.7,108.6,748.5,108.7,748.3,108.7z"/>
	</g>
	<g>
		<path d="M734.6,104.8C734.6,104.8,734.6,104.8,734.6,104.8c-0.3,0-0.5-0.3-0.5-0.6l0.4-3.5c0-0.3,0.3-0.5,0.6-0.4
			c0.3,0,0.5,0.3,0.4,0.6l-0.4,3.5C735.1,104.6,734.9,104.8,734.6,104.8z"/>
	</g>
	<g>
		<path d="M727.2,104.1C727.2,104.1,727.2,104.1,727.2,104.1c-0.3,0-0.5-0.3-0.5-0.6l0.5-3.4c0-0.3,0.3-0.5,0.6-0.4
			c0.3,0,0.5,0.3,0.4,0.6l-0.5,3.4C727.7,103.9,727.5,104.1,727.2,104.1z"/>
	</g>
	<g>
		<path d="M737.1,99c-0.2,0-0.4-0.1-0.4-0.3c-0.6-1.1-2.2-0.8-2.2-0.8c-0.3,0.1-0.5-0.1-0.6-0.4c-0.1-0.3,0.1-0.5,0.4-0.6
			c0.1,0,2.4-0.5,3.3,1.3c0.1,0.2,0,0.5-0.2,0.7C737.2,99,737.2,99,737.1,99z"/>
	</g>
	<g>
		<path d="M726.2,98.3c-0.1,0-0.2,0-0.3-0.1c-0.2-0.2-0.2-0.5,0-0.7c0.1-0.1,1.5-1.6,3.5-0.9c0.3,0.1,0.4,0.4,0.3,0.6
			c-0.1,0.3-0.4,0.4-0.6,0.3c-1.3-0.5-2.4,0.6-2.4,0.6C726.4,98.2,726.3,98.3,726.2,98.3z"/>
	</g>
	<g>
		<path d="M729.6,107.5c-0.2,0-0.4-0.1-0.5-0.4c-0.9-3,1.3-4.9,1.4-5c0.2-0.2,0.5-0.2,0.7,0.1c0.2,0.2,0.2,0.5,0,0.7
			c-0.1,0.1-1.8,1.6-1.1,4c0.1,0.3-0.1,0.5-0.3,0.6C729.7,107.5,729.6,107.5,729.6,107.5z"/>
	</g>
	<g>
		<g>
			<path d="M743.6,103.2c0,0-5-1.3-6.5-5.3c-1.5-4,0-6.3,0-6.3s-1.8-1.4-4.8-0.7c-3,0.7-5.5,4.1-5.5,4.1s-5.7-6.3-2.9-10.4
				c2.8-4.2,7.8,0,7.8,0s-0.4-4.3,7-3c7.3,1.3,7.3,10,7.3,10s2.9-2.5,5,3.3c2.1,5.8-1,8.7-1,8.7S747.3,102.5,743.6,103.2z"/>
		</g>
	</g>
	<g>
		<path class="st0" d="M719.4,121.2c-3.2,2.1-4.1,6.6-1.6,9.6c0.1,0.2,0.3,0.3,0.4,0.4c0.6,0.6,1.3,1.1,2.2,1.7
			c5.5,3.2,12.4,4.8,12.4,4.8s8.8-1.6,16.2-5.2c5.6-2.8,7.8-8.7,5.4-11.1c-2.4-2.4-4.9-3.1-4.9-3.1s-9.4,4.3-12.2,6
			c-2.7,1.7-4.5,2.5-4.5,2.5s-3.8-4.1-7.9-5.9c-3.3-1.5-3.6-0.8-3.6-0.8L719.4,121.2z"/>
	</g>
	<g>
		<path d="M732,112.7c-1.3,0-2.6-1.4-2.8-1.6c-0.1-0.1-0.2-0.3-0.1-0.5c0-0.2,0.2-0.3,0.3-0.3l5-1.4c0.2-0.1,0.4,0,0.5,0.2
			c0.1,0.1,0.2,0.4,0.1,0.5c-0.1,0.3-1.2,2.5-2.4,3C732.4,112.7,732.2,112.7,732,112.7z M730.6,111c0.6,0.4,1.2,0.8,1.6,0.6
			c0.4-0.2,0.9-0.8,1.3-1.5L730.6,111z"/>
	</g>
</g>
<g>
	<g>
		<path d="M213.9,99.2c0,0-15.6,20.3,1,30.3c16.7,10.1,16-4.5,16-4.5l-10.5-27.4L213.9,99.2z"/>
	</g>
	<g>
		<path class="st3" d="M231.6,184.2l-34.8-1.1c-5.9-0.2-10.5-5.1-10.3-11l1.3-42.8c0.2-5.9,5.1-10.5,11-10.3l34.8,1.1
			c5.9,0.2,10.5,5.1,10.3,11l-1.3,42.8C242.4,179.8,237.5,184.4,231.6,184.2z"/>
	</g>
	<g>
		<path class="st0" d="M234.6,125c0,0,27,2.5,36.2,24.1c8.7,20.4-22.6,30.8-27.4,15C238.7,148.3,234.6,125,234.6,125z"/>
	</g>
	<g>
		<g>
			<g>
				<g>
					<g>
						<path class="st1" d="M220.4,114.6l0.1,10.5c0,0,1.9,3,8.1,3.4c4.6,0.3,6-2.1,6-2.1l-1.2-9.2l-11.1-2.3L220.4,114.6z"/>
					</g>
				</g>
			</g>
		</g>
	</g>
	<g>
		<g>
			<g>
				<g>
					<g>
						<path d="M222.3,115c0,0.3,0.1,0.6,0.3,1c2.4,5.2,8.9,6.3,11.5,6.5l-0.7-5.2L222.3,115z"/>
					</g>
				</g>
			</g>
		</g>
	</g>
	<g>
		<g>
			<g>
				<g>
					<g>
						<path class="st1" d="M235.5,93.3c0,0,5.7,13.1,3.6,20.5c-2.1,7.4-8.8,6.2-12.8,4.7c-4-1.4-5.9-3.9-5.9-3.9s-3.8,1.3-6.2-2.2
							c-2.5-3.5-0.9-7.5,1.2-8.4c2.1-0.9,4.7,0.6,4.7,0.6l-2-3.8C218.1,100.8,226.5,81.5,235.5,93.3z"/>
					</g>
				</g>
			</g>
		</g>
	</g>
	<g>
		<path d="M219.6,110.3c-0.1,0-0.2,0-0.3-0.1l-4.2-3.5c-0.2-0.2-0.2-0.5-0.1-0.7c0.2-0.2,0.5-0.2,0.7-0.1l4.2,3.5
			c0.2,0.2,0.2,0.5,0.1,0.7C219.9,110.2,219.7,110.3,219.6,110.3z"/>
	</g>
	<g>
		<path d="M215.3,110.2c-0.2,0-0.4-0.1-0.5-0.3c-0.1-0.2,0-0.5,0.2-0.7l2.7-1.3c0.2-0.1,0.5,0,0.7,0.2c0.1,0.2,0,0.5-0.2,0.7
			l-2.7,1.3C215.5,110.2,215.4,110.2,215.3,110.2z"/>
	</g>
	<g>
		<path d="M220,104.6c0,0,4.6-0.4,7.5-4.2c2.9-3.8,4.3-7.6,4.3-7.6s1.9,0.3,3.2,1.9c0.9,1.1,2,2.8,2,2.8s0.1-5.3-2.5-7.9
			c-2.7-2.6-5-1.7-5-1.7s-5.8-3.4-11.8,1.9c-6,5.3-3.2,14.8-3.2,14.8S217.5,103.3,220,104.6z"/>
	</g>
	<g>
		<path d="M235.3,109.5c0,0-0.1,0-0.1,0c-0.3-0.1-0.4-0.3-0.4-0.6c0.6-2.4-1.2-3.9-1.3-4c-0.2-0.2-0.3-0.5-0.1-0.7
			c0.2-0.2,0.5-0.3,0.7-0.1c0.1,0.1,2.5,2,1.7,5.1C235.7,109.3,235.5,109.5,235.3,109.5z"/>
	</g>
	<g>
		<path d="M237.3,104.8c-0.2,0-0.4-0.2-0.5-0.4l-0.7-3.4c0-0.1,0-0.3,0.1-0.4l0.7-0.8c0.2-0.2,0.5-0.2,0.7-0.1
			c0.2,0.2,0.2,0.5,0.1,0.7l-0.5,0.6l0.6,3.2C237.9,104.5,237.7,104.7,237.3,104.8C237.4,104.8,237.3,104.8,237.3,104.8z"/>
	</g>
	<g>
		<path d="M229.8,105.8c-0.2,0-0.5-0.2-0.5-0.4l-0.6-3.5c0-0.1,0-0.3,0.1-0.4l0.8-1c0.2-0.2,0.5-0.3,0.7-0.1
			c0.2,0.2,0.3,0.5,0.1,0.7l-0.6,0.9l0.6,3.3C230.3,105.5,230.1,105.7,229.8,105.8C229.8,105.8,229.8,105.8,229.8,105.8z"/>
	</g>
	<g>
		<path d="M237.2,98.5C237.2,98.5,237.2,98.5,237.2,98.5l-2.3-0.4c-0.3,0-0.5-0.3-0.4-0.6c0-0.3,0.3-0.5,0.6-0.4l2.3,0.4
			c0.3,0,0.5,0.3,0.4,0.6C237.7,98.3,237.5,98.5,237.2,98.5z"/>
	</g>
	<g>
		<path d="M227.3,99.4c-0.2,0-0.4-0.1-0.5-0.4c-0.1-0.3,0.1-0.5,0.4-0.6l4.2-1.1c0.3-0.1,0.5,0.1,0.6,0.4c0.1,0.3-0.1,0.5-0.4,0.6
			l-4.2,1.1C227.4,99.4,227.4,99.4,227.3,99.4z"/>
	</g>
	<g>
		<polygon class="st1" points="218.5,302.1 219,313.9 241.2,318.7 242.4,310.5 240.6,299.9 		"/>
	</g>
	<g>
		<path class="st4" d="M248,174.7c0,0,4.9,35.7,6.4,70.1c1.5,34.4,2.5,59.3,2.5,59.3l-42.2,1.3l-1.8-68.4l1-62.3H248z"/>
	</g>
	<g>
		<polygon class="st1" points="180.4,201.2 188.7,209.6 170.7,226.4 162,217.5 		"/>
	</g>
	<g>
		<path class="st4" d="M196.9,174.7c0,0-4.3,13-6.8,24.2c-2.5,11.2-6.3,26.1-6.3,26.1s-14,33.9,11.6,38.8
			c31.7,6,33.2-26.8,33.2-26.8l-3.2-69L196.9,174.7z"/>
	</g>
	<g>
		<g>
			<path class="st1" d="M174.9,92.7c0,0-7.7-11.7-9.8-20.2c-2.1-8.5-0.8-11.8,0.5-12.3c1.3-0.5,3.8,4.6,3.8,4.6s-1.7-8,1-9
				c2.8-1,5.1,5.9,5.1,5.9s0-6,2.5-5.4c2.5,0.6,5.7,13.6,5.7,13.6s0.6-6.9,2.6-6.4c2,0.4,5,9.8,4.3,13.6s-3.3,8.6-3.3,8.6
				L174.9,92.7z"/>
		</g>
	</g>
	<g>
		<path class="st0" d="M220.9,122.9c0,0-14.2-15.7-19.6-26.4c-5.5-10.7-7.9-16.1-7.9-16.1l-27.7,9.3c0,0,1,9,11.1,25.7
			c10,16.8,19,27.5,19,27.5s-2,33.8-1.4,34.5c0.6,0.7,16,3.7,33.3,2.8c17.3-0.8,21.1-3,22-3.5c0.9-0.5-15-51.6-15-51.6
			S230.5,128.8,220.9,122.9z"/>
	</g>
	<g>
		<g>
			<path class="st7" d="M221.9,332.5c-1.6,0-2.9-1.3-2.9-2.9c-0.3-6.4-1.7-20.8-0.5-20.9c1.5-0.1,17.2,3.4,17.2,3.4s0.1-8.9,6.5-7.6
				c4.9,1,10.9,6.5,13.3,8.9c0.8,0.8,1.8,1.3,2.8,1.5c4.6,0.9,17.3,4.1,17.8,10.6c0.6,8-2.8,7.2-4.3,7.3
				C270.5,333,232.6,332.6,221.9,332.5z"/>
		</g>
	</g>
	<g>
		<g>
			<path class="st7" d="M163.8,186.8c1.1-1.1,3-1,4.2,0.1c4.9,4.4,15.9,16.3,15.1,17.2c-1,1.1-12.1,7.5-12.1,7.5s4.5,5.5-1,8.9
				c-4.2,2.7-12.4,2.9-15.9,2.8c-1.1,0-2.2,0.3-3.1,0.9c-3.9,2.5-15.1,9-20.2,4.7c-6.2-5.3-3.3-7-2.3-8.1
				C129.3,219.8,156.2,194.1,163.8,186.8z"/>
		</g>
	</g>
	<g>
		<path d="M180.5,83.2c-0.2,0-0.4-0.2-0.4-0.4c-1.2-9.4,3.1-13.1,3.3-13.2c0.2-0.2,0.4-0.1,0.6,0.1c0.2,0.2,0.1,0.4,0,0.6
			c0,0-4.1,3.6-3,12.5C181,83,180.8,83.2,180.5,83.2C180.6,83.2,180.5,83.2,180.5,83.2z"/>
	</g>
	<g>
		<path d="M169.9,74.7c-0.2,0-0.3-0.1-0.4-0.2c-0.1-0.2,0-0.5,0.2-0.6l13.2-6.6c0.2-0.1,0.5,0,0.6,0.2c0.1,0.2,0,0.5-0.2,0.6
			L170,74.6C170,74.6,169.9,74.7,169.9,74.7z"/>
	</g>
	<g>
		<path class="st4" d="M162,225l26-17.8l6.4,10.1l-5.5,43.9C188.9,261.2,182.1,260,162,225z"/>
	</g>
	<g>
		<path class="st10" d="M214.7,265.6c-0.2,0-0.3-0.1-0.4-0.2c-0.2-0.2-0.1-0.5,0.1-0.7c0.1-0.1,9.8-7.2,14.9-25.5
			c5.2-18.4,2-46.4,2-46.7c0-0.2,0.1-0.4,0.3-0.5l10.6-4.7c0.3-0.1,0.5,0,0.7,0.3c0.1,0.3,0,0.5-0.3,0.7l-10.3,4.5
			c0.4,3.4,2.9,29.4-2,46.8c-5.2,18.6-14.9,25.7-15.3,26C214.9,265.6,214.8,265.6,214.7,265.6z"/>
	</g>
	<g>
		<path class="st10" d="M193.5,221.1c-0.1,0-0.2,0-0.4,0c-4.4-0.7-6.3-11-6.4-11.5c0-0.2,0.1-0.4,0.3-0.5c0.2-0.1,0.4,0,0.6,0.1
			c2.4,2.8,8,9.6,7,11.4C194.3,220.9,194.1,221.1,193.5,221.1z M188.1,211.4c0.9,3.3,2.7,8.3,5.2,8.7c0.3,0,0.4,0,0.4,0
			C194,219.4,191.5,215.7,188.1,211.4z"/>
	</g>
	<g>
		<path class="st10" d="M199.7,194.5c-0.3,0-0.5-0.2-0.5-0.5c0-0.3,0.2-0.5,0.5-0.5c0.3,0,7.6-0.7,9.6-10.5c0.1-0.3,0.3-0.4,0.6-0.4
			c0.3,0.1,0.4,0.3,0.4,0.6C208.1,193.8,199.8,194.5,199.7,194.5C199.7,194.5,199.7,194.5,199.7,194.5z"/>
	</g>
	<g>
		<path class="st5" d="M169.1,96.2c-0.2,0-0.4-0.1-0.5-0.3c-0.1-0.3,0.1-0.5,0.3-0.6l25.6-8.4c0.3-0.1,0.5,0.1,0.6,0.3
			c0.1,0.3-0.1,0.5-0.3,0.6l-25.6,8.4C169.2,96.2,169.1,96.2,169.1,96.2z"/>
	</g>
	<g>
		<path d="M233.3,114.3c-0.1,0-0.1,0-0.2,0c-1.7-0.1-2.6-2.6-2.7-2.8c-0.1-0.2,0-0.3,0.1-0.5c0.1-0.1,0.3-0.2,0.5-0.2l4.5,0.7
			c0.2,0,0.3,0.1,0.4,0.3c0.1,0.1,0.1,0.3,0,0.4C235.8,112.3,234.9,114.3,233.3,114.3z M231.7,112c0.3,0.6,0.9,1.3,1.5,1.4
			c0.6,0,1.1-0.5,1.4-0.9L231.7,112z"/>
	</g>
	<g>
		<path d="M219.1,91.7c0,0,0.4-13.2-9.7-10.1c-10.2,3.1-3.3,14.6,2.7,17.1c6,2.5,8.5-2.9,8.5-2.9L219.1,91.7z"/>
	</g>
	<g>
		<path class="st5" d="M230.3,126.7c-4.8,0-9.4-3.2-9.7-3.4c-0.2-0.2-0.3-0.5-0.1-0.7c0.2-0.2,0.5-0.3,0.7-0.1
			c0.1,0.1,7.8,5.5,13.2,2.1c0.2-0.1,0.5-0.1,0.7,0.2c0.1,0.2,0.1,0.5-0.2,0.7C233.4,126.4,231.8,126.7,230.3,126.7z"/>
	</g>
	<g>
		<path class="st5" d="M264.9,163.2c-0.3,0-0.5-0.2-0.5-0.5c0.5-11.2-8.8-13.7-9.2-13.8c-0.3-0.1-0.4-0.3-0.4-0.6
			c0.1-0.3,0.3-0.4,0.6-0.4c0.1,0,10.5,2.8,10,14.8C265.4,163,265.2,163.2,264.9,163.2z"/>
	</g>
	<g>
		<path class="st3" d="M193.1,159.8c0,0,16.1-8.8,23.6-25.3c2.5-5.4,4.9-15.6,3-15.7c-1.9-0.1-1.9-0.1-1.9-0.1s-10.3,20.4-23.1,29.7
			C182,157.6,193.1,159.8,193.1,159.8z"/>
	</g>
	<g>
		<path class="st3" d="M252.5,156.5c0,0-2.4-10.4-4.2-16.1c-3-9.1-6.6-15.3-6.6-15.3s-1.2-0.9-2.9-1.6c-3-1.3-4.3-0.9-4.3-0.9
			s9.1,22.7,11,33.5C245.6,157.2,252.5,156.5,252.5,156.5z"/>
	</g>
	<g>
		<g>
			<path class="st1" d="M260.4,160.8c0.5-4-1.3-7.9-4.7-10.1c-0.7-0.4-1.3-0.8-1.8-1.1c-2.3-1.3-11.9,1.6-11.9,1.6s-6.9,2.1-5.5,4.2
				c1.4,2,4.5,1.4,5.3,2.1c0.8,0.6-2.8,8.1-1.3,9.4c2.3,2,11.3,3.2,15.8,1.6c0,0,0.1,0,0.1-0.1C259,167.3,260,164,260.4,160.8z"/>
		</g>
	</g>
	<g>
		<path d="M245.1,158.3C245.1,158.3,245.1,158.3,245.1,158.3l-3.5-0.4c-0.3,0-0.5-0.3-0.4-0.6c0-0.3,0.3-0.5,0.6-0.4l3.4,0.4
			c0.3,0,0.5,0.3,0.4,0.6C245.6,158.1,245.4,158.3,245.1,158.3z"/>
	</g>
	<g>
		<path d="M250.1,151.4C250.1,151.4,250,151.4,250.1,151.4l-4-0.8c-0.3-0.1-0.4-0.3-0.4-0.6c0.1-0.3,0.3-0.4,0.6-0.4l3.9,0.8
			c0.3,0.1,0.4,0.3,0.4,0.6C250.5,151.3,250.3,151.4,250.1,151.4z"/>
	</g>
</g>
<g>
	<g>
		<path d="M613.4,92.3c0,0,9.1-3.3,14.8,4.2c5.7,7.6,5,40.2,5,40.2l-24.7,1.3l1.5-36.1L613.4,92.3z"/>
	</g>
	<g>
		<path class="st3" d="M590.1,187.4l32,1c5.7,0.2,10.4-4.3,10.6-10l1.4-43.5c0.2-5.7-4.3-10.4-10-10.6l-32-1
			c-5.7-0.2-10.4,4.3-10.6,10l-1.4,43.5C579.9,182.5,584.4,187.3,590.1,187.4z"/>
	</g>
	<g>
		<path class="st1" d="M558.6,99.9c0,0-3.4,32.8,11.5,46.1c20.1,18.1,36-1.8,36-1.8l-9.1-14.6c0,0-14.2-6.1-18.5-15.4
			c-4.3-9.3-2.6-15.8-2.6-15.8L558.6,99.9z"/>
	</g>
	<g>
		<g>
			<path class="st1" d="M572.7,105c0,0,3.3-1.8,4.6-7.4c0.9-3.8-0.6-11.4-2.5-12.3c-1.9-0.8-2.6,5.1-2.6,5.1s0-9.5-2-12.2
				c-2-2.6-3.8,0.8-3.8,0.8s-0.2-3.8-2.7-4.8c-2.5-1-2.9,3.3-2.9,3.3s-1.9-3.8-4-0.9c-2.2,2.9-1.8,12.4-0.5,17
				c1.3,4.6,2.3,6.3,2.3,6.3L572.7,105z"/>
		</g>
	</g>
	<g>
		<path d="M571.4,87.9c-0.1,0-0.1,0-0.2,0c0,0-4.5-1.6-8.8-2.5c-0.3-0.1-0.4-0.3-0.4-0.6c0.1-0.3,0.3-0.4,0.6-0.4
			c4.4,0.9,8.9,2.6,8.9,2.6c0.3,0.1,0.4,0.4,0.3,0.6C571.8,87.8,571.6,87.9,571.4,87.9z"/>
	</g>
	<g>
		<path d="M568.3,100c-0.2,0-0.4-0.1-0.5-0.3c-1.5-4.5,3.7-9.4,3.9-9.6c0.2-0.2,0.5-0.2,0.7,0c0.2,0.2,0.2,0.5,0,0.7
			c-0.1,0-5,4.7-3.7,8.6c0.1,0.3,0,0.5-0.3,0.6C568.4,100,568.4,100,568.3,100z"/>
	</g>
	<g>
		<path class="st7" d="M581,115.8l-14.7,28.5c0,0,17.5,17.1,28,12.4c10.4-4.7,7.4-30.2,7.4-30.2l-3.8-0.9c-3.6-0.8-7-2.4-9.9-4.6
			L581,115.8z"/>
	</g>
	<g>
		<path class="st1" d="M604.8,239.9c0,0-4.6,16,6.1,36.2c12.3,23.3,20.8,35,20.8,35l20.3-5.6c0,0-18.3-47.9-18.7-67.2
			C633.2,218.9,604.8,239.9,604.8,239.9z"/>
	</g>
	<g>
		<path class="st1" d="M583.5,232.2c0,0-0.9,20.9,1.9,43.9c2.8,23,4.9,36.6,4.9,36.6l21.1,0.1c0,0-1.8-50.3,1.6-69.3
			C616.4,224.4,583.5,232.2,583.5,232.2z"/>
	</g>
	<g>
		<path class="st13" d="M609.9,273.3c-0.2,0-0.3-0.1-0.4-0.2c-7.3-11.1-8.3-27.7-8.3-27.8c0-0.3,0.2-0.5,0.5-0.5
			c0.3,0,0.5,0.2,0.5,0.5c0,0.2,1,16.4,8.1,27.3c0.2,0.2,0.1,0.5-0.1,0.7C610.1,273.3,610,273.3,609.9,273.3z"/>
	</g>
	<g>
		<g>
			<path class="st2" d="M611.5,331.2c1.5-0.1,2.7-1.5,2.6-3.1c-0.1-6.4,0.3-20.7-0.8-20.7c-1.5,0-16.3,4.4-16.3,4.4
				s-0.6-8.8-6.7-7.1c-4.7,1.3-10,7.1-12.3,9.7c-0.7,0.8-1.6,1.4-2.6,1.7c-4.4,1.2-16.4,5.1-16.4,11.6c0,7.9,3.1,7,4.6,6.9
				C564.8,334.5,601.3,331.9,611.5,331.2z"/>
		</g>
	</g>
	<g>
		<g>
			<path class="st2" d="M658.5,315.5c1.3-0.8,1.7-2.5,0.9-3.9c-3.1-5.6-9.4-18.4-10.4-17.9c-1.3,0.7-12.3,11.6-12.3,11.6
				s-4.7-7.5-9.3-3.1c-3.5,3.4-5.6,11-6.3,14.3c-0.2,1.1-0.8,2-1.5,2.7c-3.3,3.1-12.1,12.2-9.1,17.9c3.7,7,6,4.7,7.3,4
				C618.9,340.4,649.8,321,658.5,315.5z"/>
		</g>
	</g>
	<g>
		<path class="st4" d="M584.4,171.6c0,0-12.4,70.5-11.2,72c1.2,1.5,21.1,2.3,36.8,2.1c15.6-0.2,29.9-3.7,30.9-4.3
			c1-0.6-6.1-51.7-15.5-71.3C617.1,152.8,584.4,171.6,584.4,171.6z"/>
	</g>
	<g>
		<path class="st7" d="M600,126.6l-8.2,1.1c0,0-7.4,8-7.5,16.9c-0.2,8.9-1.8,31.4-1.8,31.4s6.4,3.4,18.7,4.7
			c12.3,1.3,27.1-3.7,27.1-3.7s-4.7-44.5-4.7-48.2C623.6,126.3,600,126.6,600,126.6z"/>
	</g>
	<g>
		<g>
			<g>
				<g>
					<g>
						<path class="st1" d="M611.9,117.3l0.3,10.5c0,0-1.8,3.1-7.9,3.8c-4.6,0.5-6.1-1.8-6.1-1.8l0.8-9.2l11-2.8L611.9,117.3z"/>
					</g>
				</g>
			</g>
		</g>
	</g>
	<g>
		<g>
			<g>
				<g>
					<g>
						<path d="M610,117.8c0,0.3-0.1,0.6-0.3,1c-2.2,5.3-8.6,6.7-11.2,7l0.5-5.2L610,117.8z"/>
					</g>
				</g>
			</g>
		</g>
	</g>
	<g>
		<g>
			<g>
				<g>
					<g>
						<path class="st1" d="M595.9,96.7c0,0-5.1,13.4-2.7,20.6c2.4,7.3,9.1,5.8,13,4.2c3.9-1.6,5.7-4.2,5.7-4.2s3.8,1.1,6.1-2.5
							c2.3-3.6,0.6-7.5-1.6-8.3c-2.2-0.8-4.7,0.9-4.7,0.9l1.8-3.9C613.6,103.4,604.3,84.5,595.9,96.7z"/>
					</g>
				</g>
			</g>
		</g>
	</g>
	<g>
		<path d="M600.1,116.3c-0.5,0-0.8-0.1-0.8-0.1c-0.3-0.1-0.4-0.4-0.3-0.6c0.1-0.3,0.4-0.4,0.6-0.3c0.1,0,1.5,0.5,2.9-1.3
			c0.2-0.2,0.5-0.2,0.7-0.1c0.2,0.2,0.2,0.5,0.1,0.7C602.1,116,600.8,116.3,600.1,116.3z"/>
	</g>
	<g>
		<path d="M612.5,112.9c-0.1,0-0.3-0.1-0.4-0.2c-0.2-0.2-0.2-0.5,0-0.7l4-3.7c0.2-0.2,0.5-0.2,0.7,0c0.2,0.2,0.2,0.5,0,0.7l-4,3.7
			C612.7,112.9,612.6,112.9,612.5,112.9z"/>
	</g>
	<g>
		<path d="M616.7,112.7c-0.1,0-0.1,0-0.2,0l-2.7-1.1c-0.3-0.1-0.4-0.4-0.3-0.7c0.1-0.3,0.4-0.4,0.7-0.3l2.7,1.1
			c0.3,0.1,0.4,0.4,0.3,0.7C617.1,112.6,616.9,112.7,616.7,112.7z"/>
	</g>
	<g>
		<path d="M611.8,107.3c0,0-4.6-0.2-7.7-3.9c-3.1-3.6-4.6-7.4-4.6-7.4s-1.9,0.4-3.1,2c-0.9,1.2-1.9,2.9-1.9,2.9s-0.4-5.3,2.2-8
			s4.9-1.9,4.9-1.9s5.7-3.6,11.9,1.4c6.2,5,3.9,14.7,3.9,14.7S614.2,105.9,611.8,107.3z"/>
	</g>
	<g>
		<path d="M596.8,112.8c-0.2,0-0.4-0.1-0.5-0.4c-0.9-3,1.3-5,1.4-5.1c0.2-0.2,0.5-0.2,0.7,0.1c0.2,0.2,0.2,0.5,0,0.7
			c-0.1,0.1-1.9,1.7-1.1,4.1c0.1,0.3-0.1,0.5-0.3,0.6C596.9,112.8,596.8,112.8,596.8,112.8z"/>
	</g>
	<g>
		<path d="M594.5,108.2C594.5,108.2,594.5,108.2,594.5,108.2c-0.3,0-0.5-0.3-0.5-0.6l0.5-3.2l-0.5-0.6c-0.2-0.2-0.2-0.5,0-0.7
			c0.2-0.2,0.5-0.2,0.7,0l0.7,0.7c0.1,0.1,0.2,0.3,0.1,0.4l-0.5,3.5C595,108,594.8,108.2,594.5,108.2z"/>
	</g>
	<g>
		<path d="M602.1,108.9C602.1,108.9,602,108.9,602.1,108.9c-0.3,0-0.5-0.3-0.5-0.6l0.4-3.3l-0.7-0.8c-0.2-0.2-0.1-0.5,0.1-0.7
			c0.2-0.2,0.5-0.1,0.7,0.1l0.8,1c0.1,0.1,0.1,0.2,0.1,0.4l-0.4,3.5C602.5,108.7,602.3,108.9,602.1,108.9z"/>
	</g>
	<g>
		<path d="M594.3,102c-0.2,0-0.4-0.2-0.5-0.4c-0.1-0.3,0.1-0.5,0.4-0.6l2.2-0.5c0.3-0.1,0.5,0.1,0.6,0.4c0.1,0.3-0.1,0.5-0.4,0.6
			l-2.2,0.5C594.4,101.9,594.4,102,594.3,102z"/>
	</g>
	<g>
		<path d="M604.3,102.4c0,0-0.1,0-0.1,0l-4.3-1c-0.3-0.1-0.4-0.3-0.4-0.6c0.1-0.3,0.3-0.4,0.6-0.4l4.3,1c0.3,0.1,0.4,0.3,0.4,0.6
			C604.7,102.3,604.5,102.4,604.3,102.4z"/>
	</g>
	<g>
		<path class="st5" d="M625.8,190.4c-6.5,0-8.5-5.4-8.5-5.5c-0.1-0.3,0-0.5,0.3-0.6c0.3-0.1,0.5,0,0.6,0.3c0.1,0.2,2.3,6,9.9,4.6
			c0.3,0,0.5,0.1,0.6,0.4c0.1,0.3-0.1,0.5-0.4,0.6C627.4,190.3,626.6,190.4,625.8,190.4z"/>
	</g>
	<g>
		<path class="st3" d="M581.3,158.2c0,0-1.1-5.3,2.3-16.9c2.7-9.2,9.2-17.4,9.2-17.4s0.4,0.3,2.3,0c2.3-0.4,3.5,0.4,3.5,0.4
			s-12.4,23.3-14.9,33.9C583.3,159.3,581.3,158.2,581.3,158.2z"/>
	</g>
	<g>
		<path class="st3" d="M628.3,166.8c-8.5-2-11.6-2.3-15.3-18.2c-2.5-10.5-0.6-24.1-0.6-24.1s2.6,0.4,4.4,1c1.8,0.6,1.8,0.6,1.8,0.6
			s0,27.7,9.8,36.7C633,167,631.6,167.6,628.3,166.8z"/>
	</g>
	<g>
		<path class="st1" d="M622.3,178.3c0,0,17.6,6.3,25.7,0c14.6-11.1-7-30.2-7-30.2l-15.8,18.2L622.3,178.3z"/>
	</g>
	<g>
		<g>
			<path class="st1" d="M630.9,164.6c0,0-3.8-3.8-5.9-5.4C623,157.6,613,159,613,159s-7.2,1-6.1,3.2c1.1,2.2,4.2,2.1,4.9,2.9
				c0.7,0.8-4,7.6-2.8,9c2,2.3,10.7,4.9,15.4,4c0,0,0.1,0,0.1,0c5.8-1.2,8.9-7.7,6.5-13.2L630.9,164.6z"/>
		</g>
	</g>
	<g>
		<path d="M615.2,166.5c0,0-0.1,0-0.1,0l-3.3-0.9c-0.3-0.1-0.4-0.3-0.4-0.6c0.1-0.3,0.3-0.4,0.6-0.4l3.3,0.9
			c0.3,0.1,0.4,0.3,0.4,0.6C615.6,166.3,615.4,166.5,615.2,166.5z"/>
	</g>
	<g>
		<path d="M621.1,160.4c-0.1,0-0.1,0-0.2,0l-3.8-1.4c-0.3-0.1-0.4-0.4-0.3-0.6c0.1-0.3,0.4-0.4,0.6-0.3l3.8,1.4
			c0.3,0.1,0.4,0.4,0.3,0.6C621.5,160.3,621.3,160.4,621.1,160.4z"/>
	</g>
	<g>
		<path class="st7" d="M622.3,128c0,0,9.8,2.3,16.5,11.2c5.1,6.8,9.2,13.9,9.2,13.9l-18.9,10.5l-3-2.8L622.3,128z"/>
	</g>
	<g>
		<path class="st4" d="M609.2,136.4c-2.2,0-4.9-2.8-5.9-3.9c-1.5,1.1-5.1,3.4-6.5,2.9c-0.3-0.1-0.6-0.3-0.7-0.6
			c-0.6-1.9,1.4-4.9,1.7-5.3c0.1-0.1,0.2-0.2,0.4-0.2c0.2,0,0.3,0,0.4,0.2c0.1,0.1,2.3,2.3,6.7,1.5c4.5-0.9,6.6-3.4,6.6-3.5
			c0.1-0.2,0.4-0.2,0.6-0.2c0.2,0.1,0.3,0.3,0.3,0.5c-0.1,1.4-0.7,8.3-3.3,8.5C609.3,136.4,609.2,136.4,609.2,136.4z M604.2,132.1
			c1.3,1.3,3.6,3.4,5,3.3c1.1-0.1,2-3.4,2.3-6.2c-1.1,0.9-3.1,2.2-6.2,2.8C605,132,604.6,132.1,604.2,132.1z M598.3,130.6
			c-0.7,1.2-1.5,3-1.2,3.9c0.4,0.3,2.7-0.8,5.1-2.4C600.2,131.8,598.9,131.1,598.3,130.6z"/>
	</g>
</g>
<g>
	<g>
		<path class="st3" d="M358.5,183.8l-32,1c-5.7,0.2-10.4-4.3-10.6-10l-1.4-43.5c-0.2-5.7,4.3-10.4,10-10.6l32-1
			c5.7-0.2,10.4,4.3,10.6,10l1.4,43.5C368.7,178.8,364.2,183.6,358.5,183.8z"/>
	</g>
	<g>
		<polygon class="st1" points="371.1,289.1 367.6,307.4 355.6,314.1 344.5,310.3 346.3,289.1 		"/>
	</g>
	<g>
		<polygon class="st7" points="369.3,298.5 343.4,298.5 339,310.3 367.6,307.4 		"/>
	</g>
	<g>
		<path class="st14" d="M341.5,310.3l6.8,13l4.3,8.2c0,0,42.5,1.6,44.7,0c2.2-1.6,2.2-6.2,0-8.1c-2.2-1.9-27.5-15.6-27.5-15.6
			s0-3.8-1.6-4.1c-1.6-0.4-12.1,4.1-12.1,4.1l-12.2-4.2L341.5,310.3z"/>
	</g>
	<g>
		<path class="st8" d="M348.3,323.4l4.3,8.2c0,0,42.5,1.6,44.7,0c2.2-1.6,2.2-6.2,0-8.1c0,0-29.2,2.2-45.4,0
			C350.3,323.3,349.2,323.3,348.3,323.4z"/>
	</g>
	<g>
		<polygon class="st1" points="347.3,291.3 344.5,310.3 324.1,310.3 323.2,291.3 		"/>
	</g>
	<g>
		<polygon class="st7" points="344.5,310.3 345.9,300.8 323.6,300.8 324.1,310.3 		"/>
	</g>
	<g>
		<path class="st10" d="M317.8,328.1c0,2.3,1.4,5.6,6.5,6.6c5,1.1,31.3,0,32.1-0.9c0.4-0.5,0.7-2.4,0.9-4.1c0.2-1.8-0.3-3.6-1.3-5.2
			l-10.8-16.4c0,0-3-3-8.7-2.5c-5.8,0.5-8.7,2.5-8.7,2.5s-2.7-2.7-3.9-1.8c-1,0.8-4.5,13.6-5.7,19.3
			C317.9,326.8,317.8,327.7,317.8,328.1z"/>
	</g>
	<g>
		<path class="st0" d="M371.1,183.5c0,0,3.4,13.2,6.8,42c2.5,21.2,5.2,62.7,3.2,64c-2,1.3-25.9,2.8-25.9,2.8s-8,2.9-21.9,2.5
			c-10.1-0.3-18.3-2.5-18.3-2.5s1.3-93.8,8.8-108.3C329.8,172.6,371.1,183.5,371.1,183.5z"/>
	</g>
	<g>
		<path class="st3" d="M354.8,292.8c0,0-0.1,0-0.1,0c-0.3-0.1-0.4-0.3-0.4-0.6c4.9-21.7,3.8-82,3.8-82.6c0-0.2,0.1-0.4,0.3-0.5
			L369,204c0.2-0.1,0.5,0,0.7,0.2c0.1,0.2,0,0.5-0.2,0.7l-10.3,5c0.1,4.8,0.9,61.5-3.8,82.5C355.3,292.6,355.1,292.8,354.8,292.8z"
			/>
	</g>
	<g>
		<path class="st3" d="M331.6,286.2c-5.1,0-10.4-0.4-15-1.6c-0.3-0.1-0.4-0.3-0.4-0.6c0.1-0.3,0.3-0.4,0.6-0.4c13.2,3.5,33.8,0,34,0
			c0.3-0.1,0.5,0.1,0.6,0.4c0,0.3-0.1,0.5-0.4,0.6C350.9,284.7,341.7,286.2,331.6,286.2z"/>
	</g>
	<g>
		<path class="st3" d="M362.1,285.2c-2.1,0-4.2-0.2-6-0.6c-0.3-0.1-0.4-0.3-0.4-0.6c0.1-0.3,0.3-0.4,0.6-0.4
			c7.5,1.8,20-1.2,20.1-1.2c0.3-0.1,0.5,0.1,0.6,0.4c0.1,0.3-0.1,0.5-0.4,0.6C376.3,283.5,369,285.2,362.1,285.2z"/>
	</g>
	<g>
		<path class="st0" d="M317.8,328.1c0,2.3,1.4,5.6,6.5,6.6c5,1.1,31.3,0,32.1-0.9c0.4-0.5,0.7-2.4,0.9-4.1c0.2-1.8-0.3-3.6-1.3-5.2
			c0,0-1.7,2.7-17.7,3.2c-10.3,0.4-16.8-1.1-20.1-2.2C317.9,326.8,317.8,327.7,317.8,328.1z"/>
	</g>
	<g>
		<path class="st5" d="M331.8,318.3c-0.2,0-0.4-0.1-0.5-0.4c-0.1-0.3,0.1-0.5,0.3-0.6c6-1.7,12.9-0.1,13.2,0
			c0.3,0.1,0.4,0.3,0.4,0.6c-0.1,0.3-0.3,0.4-0.6,0.4c-0.1,0-7-1.7-12.7,0C331.9,318.3,331.8,318.3,331.8,318.3z"/>
	</g>
	<g>
		<path class="st5" d="M330.8,314.6c-0.2,0-0.4-0.1-0.5-0.4c-0.1-0.3,0.1-0.5,0.3-0.6c6-1.7,12.9-0.1,13.2,0
			c0.3,0.1,0.4,0.3,0.4,0.6c-0.1,0.3-0.3,0.4-0.6,0.4c-0.1,0-7-1.7-12.7,0C330.9,314.6,330.8,314.6,330.8,314.6z"/>
	</g>
	<g>
		<path class="st5" d="M380.9,314.6h-10.3c-0.3,0-0.5-0.2-0.5-0.5c0-0.3,0.2-0.5,0.5-0.5h10.3c0.3,0,0.5,0.2,0.5,0.5
			C381.4,314.4,381.2,314.6,380.9,314.6z"/>
	</g>
	<g>
		<path class="st5" d="M367.6,310.8c-0.3,0-0.5-0.2-0.5-0.4c0-0.3,0.2-0.5,0.4-0.5l5.6-0.6c0.3,0,0.5,0.2,0.5,0.4
			c0,0.3-0.2,0.5-0.4,0.5L367.6,310.8C367.6,310.8,367.6,310.8,367.6,310.8z"/>
	</g>
	<g>
		<path class="st4" d="M342,121.4c0,0-13.9,0.2-24.3,11.7c-10.4,11.5-12.9,36.7-12.9,36.7l26.9,5.8l56-16.6c0,0-9.8-21.9-18.8-30.9
			C359.9,119.1,342,121.4,342,121.4z"/>
	</g>
	<g>
		<g>
			<g>
				<g>
					<path class="st1" d="M339.6,113.3l0.3,9.8c0,0,2.1,2.8,8.5,3.2c4.8,0.3,6.4-0.7,6.4-0.7l-0.8-5l-0.8-4.8l-11.7-2.1L339.6,113.3
						z"/>
				</g>
			</g>
		</g>
	</g>
	<g>
		<g>
			<g>
				<g>
					<path d="M341.6,113.7c0,0.3,0.2,0.7,0.3,1.1c2.6,5.4,9.3,6.5,12.1,6.6l-0.8-5.4L341.6,113.7z"/>
				</g>
			</g>
		</g>
	</g>
	<g>
		<g>
			<g>
				<g>
					<path class="st1" d="M355.1,90.9c0,0,6.1,13.6,4,21.3c-2.1,7.7-9.1,6.5-13.3,5.1c-4.2-1.5-6.2-4-6.2-4s-3.9,1.4-6.5-2.3
						c-2.6-3.6-1.1-7.8,1.2-8.8c2.2-1,4.9,0.6,4.9,0.6l-2.1-4C337,99,345.6,78.7,355.1,90.9z"/>
				</g>
			</g>
		</g>
	</g>
	<g>
		<path d="M354.7,107.1c0,0-0.1,0-0.1,0c-0.3-0.1-0.4-0.4-0.3-0.6c0.7-2.4-1.1-4-1.1-4.1c-0.2-0.2-0.2-0.5,0-0.7
			c0.2-0.2,0.5-0.2,0.7-0.1c0.1,0.1,2.4,2.1,1.4,5.1C355.1,107,354.9,107.1,354.7,107.1z"/>
	</g>
	<g>
		<path class="st4" d="M319.8,178.9l-0.4,15.2c0,0,15.4,2.3,32,0c16.6-2.3,22.7-6.3,22.7-6.3v-33.1h-44.5L319.8,178.9z"/>
	</g>
	<g>
		<path d="M338.5,109.4c-0.1,0-0.3-0.1-0.4-0.2l-3.7-3.9c-0.2-0.2-0.2-0.5,0-0.7c0.2-0.2,0.5-0.2,0.7,0l3.7,3.9
			c0.2,0.2,0.2,0.5,0,0.7C338.8,109.3,338.7,109.4,338.5,109.4z"/>
	</g>
	<g>
		<path d="M334.6,108.3c-0.2,0-0.5-0.2-0.5-0.4c0-0.3,0.1-0.5,0.4-0.6l2.6-0.4c0.3,0,0.5,0.1,0.6,0.4c0,0.3-0.1,0.5-0.4,0.6
			L334.6,108.3C334.7,108.3,334.6,108.3,334.6,108.3z"/>
	</g>
	<g>
		<path d="M348.5,104.3c-0.2,0-0.5-0.2-0.5-0.4l-0.4-3.5c0-0.3,0.2-0.5,0.4-0.6c0.3,0,0.5,0.2,0.6,0.4l0.4,3.5
			C349,104,348.9,104.2,348.5,104.3C348.6,104.3,348.5,104.3,348.5,104.3z"/>
	</g>
	<g>
		<path d="M356.1,103.6c-0.2,0-0.5-0.2-0.5-0.4l-0.5-3.5c0-0.3,0.1-0.5,0.4-0.6c0.3,0,0.5,0.1,0.6,0.4l0.5,3.5
			C356.6,103.3,356.4,103.6,356.1,103.6C356.1,103.6,356.1,103.6,356.1,103.6z"/>
	</g>
	<g>
		<path d="M346,98.4c-0.1,0-0.2,0-0.2-0.1c-0.2-0.1-0.3-0.4-0.2-0.7c0.9-1.8,3.3-1.4,3.4-1.3c0.3,0.1,0.4,0.3,0.4,0.6
			c-0.1,0.3-0.3,0.4-0.6,0.4c-0.1,0-1.7-0.3-2.3,0.8C346.4,98.3,346.2,98.4,346,98.4z"/>
	</g>
	<g>
		<path d="M357.2,97.6c-0.1,0-0.3-0.1-0.4-0.2c0-0.1-1.1-1.1-2.5-0.6c-0.3,0.1-0.5,0-0.6-0.3c-0.1-0.3,0-0.5,0.3-0.6
			c2-0.7,3.5,0.8,3.5,0.9c0.2,0.2,0.2,0.5,0,0.7C357.4,97.6,357.3,97.6,357.2,97.6z"/>
	</g>
	<g>
		<path class="st5" d="M351,126.5c-6.1,0-11.1-2.8-11.4-3c-0.2-0.1-0.3-0.4-0.2-0.7c0.1-0.2,0.4-0.3,0.7-0.2c0.1,0,7.2,4.1,14.6,2.4
			c0.3-0.1,0.5,0.1,0.6,0.4c0.1,0.3-0.1,0.5-0.4,0.6C353.6,126.4,352.3,126.5,351,126.5z"/>
	</g>
	<g>
		<path d="M352.6,111.3c-0.3,0-2.5-0.1-4.2-2.1c-0.2-0.2-0.2-0.5,0.1-0.7c0.2-0.2,0.5-0.2,0.7,0.1c1.5,1.7,3.3,1.7,3.4,1.7
			c0.3,0,0.5,0.2,0.5,0.5C353.2,111,353,111.3,352.6,111.3C352.7,111.3,352.7,111.3,352.6,111.3z"/>
	</g>
	<g>
		<path class="st3" d="M332.4,123.2c0,0,3.5,9.5,3.9,22.3c0.4,12.8-2.5,28.8-2.5,28.8l6,2.1c0,0,3.1-14,3.1-31c0-16.9-4.5-24-4.5-24
			L332.4,123.2z"/>
	</g>
	<g>
		<path class="st3" d="M363.9,175.1l-6-1.9c0,0,2.4-16.1,1.7-28.9c-0.6-10.7-4.1-20.4-5.2-23.3c2.8,0.5,5.7,1.3,8.4,2.7
			c1.4,3.6,3.1,10.2,3.4,20.3C366.6,161,363.9,175.1,363.9,175.1z"/>
	</g>
	<g>
		<path d="M334.9,102.3c2.2-0.4,4.2,0.6,4.3,1.1c0.3,1.7,2.3,2.3,2.4,0.4c0.2-3.4-2.4-4.1-2.4-4.1s4-0.4,7.5-4.1
			c3.5-3.7,4.4-5.2,4.4-5.2l5.1,3.3c0,0,5.6-11.3-8.5-10.5c-14.1,0.8-14.3,13.2-14.3,13.2s-3.9,1-3.7,3.3c0.3,2.3,2.6,4.7,2.6,4.7
			S332.7,102.7,334.9,102.3z"/>
	</g>
	<g>
		<g>
			<path class="st0" d="M388.4,154.3c0,0,2.2-2.9,7.2-4.9c7.7-3.2,13.3-3.7,13.3-3.7l-0.1,4.3L388.4,154.3z"/>
		</g>
		<g>
			<path class="st0" d="M361.8,148.1l-0.2,6.5l33,1.8c0,0-1.1-3.7-10.4-6C375.9,148.4,361.8,148.1,361.8,148.1z"/>
		</g>
		<g>
			<polygon class="st2" points="410.6,148.3 409.4,185.7 389.9,189.6 360.3,189.1 360.7,150.8 390.3,152.3 			"/>
		</g>
		<g>
			<polygon class="st15" points="389.4,152.2 388.2,190 391.2,189.7 392.3,151.9 			"/>
		</g>
	</g>
	<g>
		<g>
			<g>
				<g>
					<g>
						<path class="st1" d="M412.9,172.1c0,0,6.7,1.8,4.1,4.6c-2.6,2.8-15.1,2.4-15.8-1.5C400.5,171.4,412.9,172.1,412.9,172.1z"/>
					</g>
				</g>
			</g>
		</g>
		<g>
			<g>
				<g>
					<g>
						<path class="st1" d="M413.1,166.4c0,0,6.7,1.8,4.1,4.6c-2.6,2.8-15.1,2.4-15.8-1.5C400.6,165.7,413.1,166.4,413.1,166.4z"/>
					</g>
				</g>
			</g>
		</g>
		<g>
			<g>
				<g>
					<g>
						<path class="st1" d="M409.8,161.1c1.6-0.3,3.2-0.2,4.6,0.4c1.3,0.5,2.4,1.4,1.4,2.8c-1.8,2.8-12.8,4.3-14,1.1
							C401,162.9,406.8,161.6,409.8,161.1z"/>
					</g>
				</g>
			</g>
		</g>
		<g>
			<path d="M404.3,167.5c-0.3,0-0.5-0.2-0.5-0.5c0-0.3,0.2-0.5,0.5-0.5l8.7-0.6c0.3,0,0.5,0.2,0.5,0.5c0,0.3-0.2,0.5-0.5,0.5
				L404.3,167.5C404.4,167.5,404.4,167.5,404.3,167.5z"/>
		</g>
		<g>
			<path d="M414.7,173.2c0,0-9.6-0.1-9.6-0.1c-0.3,0-0.5-0.2-0.5-0.5c0-0.3,0.2-0.5,0.5-0.5c0,0,9.6,0.1,9.6,0.1
				c0.3,0,0.5,0.2,0.5,0.5C415.2,173,414.9,173.2,414.7,173.2z"/>
		</g>
	</g>
	<g>
		<path class="st4" d="M351.1,182.1c0,0-13.9,4.4-34,0.5c-20.6-4-14.2-32.5-4.6-44.3c9.6-11.7,19.9-15.1,19.9-15.1l-2,35.9l20.6,5
			V182.1z"/>
	</g>
	<g>
		<path class="st5" d="M343.2,185.3c-1.9,0-12-0.1-22.7-1.5c-0.3,0-0.5-0.3-0.4-0.6c0-0.3,0.3-0.5,0.6-0.4
			c11.7,1.6,22.7,1.5,22.8,1.5c0.3,0,0.5,0.2,0.5,0.5c0,0.3-0.2,0.5-0.5,0.5C343.5,185.3,343.4,185.3,343.2,185.3z"/>
	</g>
	<g>
		<path class="st1" d="M345.9,180.9c0,0,5.5,2.8,12.8,0.2c9-3.2-4.9-18.4-4.9-18.4l-8.1,5.6L345.9,180.9z"/>
	</g>
	<g>
		<g>
			<g>
				<g>
					<path class="st1" d="M357.3,173.2c0,0-6.1,3.2-3,5.4c3.1,2.2,15.2-1,15.1-4.9C369.3,169.8,357.3,173.2,357.3,173.2z"/>
				</g>
			</g>
		</g>
	</g>
	<g>
		<g>
			<g>
				<g>
					<path class="st1" d="M355.9,167.6c0,0-6.1,3.2-3,5.4s15.2-1,15.1-4.9C367.9,164.2,355.9,167.6,355.9,167.6z"/>
				</g>
			</g>
		</g>
	</g>
	<g>
		<g>
			<g>
				<g>
					<path class="st1" d="M357.9,161.8c-1.6,0.1-3.1,0.5-4.4,1.4c-1.2,0.8-2,1.8-0.8,3c2.4,2.4,13.4,1.5,13.9-2
						C367,161.6,361,161.6,357.9,161.8z"/>
				</g>
			</g>
		</g>
	</g>
	<g>
		<path d="M355.9,168.1c-0.2,0-0.5-0.2-0.5-0.4c0-0.3,0.1-0.5,0.4-0.6l8.7-1.4c0.3,0,0.5,0.1,0.6,0.4c0,0.3-0.1,0.5-0.4,0.6
			L355.9,168.1C356,168.1,355.9,168.1,355.9,168.1z"/>
	</g>
	<g>
		<path d="M357.2,174.1c-0.2,0-0.4-0.1-0.5-0.4c-0.1-0.3,0.1-0.5,0.4-0.6l7.5-1.9c0.3-0.1,0.5,0.1,0.6,0.4c0.1,0.3-0.1,0.5-0.4,0.6
			l-7.5,1.9C357.3,174.1,357.3,174.1,357.2,174.1z"/>
	</g>
	<g>
		<path class="st5" d="M345.7,168.9c-0.3,0-0.5-0.2-0.5-0.5l0.2-5.4c-2.4-0.7-15.6-4.5-24.4-5.5c-0.3,0-0.5-0.3-0.4-0.6
			s0.3-0.5,0.6-0.4c9.7,1,24.8,5.6,24.9,5.6c0.2,0.1,0.4,0.3,0.4,0.5l-0.2,5.8C346.2,168.7,346,168.9,345.7,168.9z"/>
	</g>
	<g>
		<path class="st5" d="M332.4,159.6c-0.1,0-0.1,0-0.2,0c-0.8-0.4-8-3.9-8.7-6.8c-0.1-0.6,0-1.1,0.3-1.6c0.3-0.5,0.8-0.7,1.4-0.6
			c2.7,0.2,7.1,7.4,7.6,8.3c0.1,0.2,0.1,0.4-0.1,0.6C332.7,159.6,332.6,159.6,332.4,159.6z M325.1,151.6c-0.2,0-0.3,0.1-0.5,0.3
			c-0.2,0.2-0.2,0.4-0.1,0.7c0.4,1.6,4,3.9,6.5,5.3C329.2,155,326.6,151.7,325.1,151.6C325.2,151.6,325.2,151.6,325.1,151.6z"/>
	</g>
</g>
</svg>
