<?xml version="1.0" encoding="utf-8"?>
<!-- Generator: Adobe Illustrator 24.3.0, SVG Export Plug-In . SVG Version: 6.00 Build 0)  -->
<svg version="1.1" id="Слой_1" xmlns="http://www.w3.org/2000/svg" xmlns:xlink="http://www.w3.org/1999/xlink" x="0px" y="0px"
	 viewBox="0 0 300 300" style="enable-background:new 0 0 300 300;" xml:space="preserve">
<style type="text/css">
	.st0{fill:#FFFFFF;}
	.st1{fill:#101042;}
	.st2{fill:#141451;}
	.st3{fill:none;stroke:#D69D2B;stroke-width:3;stroke-miterlimit:10;}
	.st4{fill:#D69D2B;}
</style>
<g>
	<g>
		<path class="st0" d="M100,172.7c-7.8,9.2-19,13.7-33.7,13.7c-3.5,0-6.9-0.3-10.3-0.8c-3.4-0.5-7.2-1.6-11.4-3.3
			c-4.2-1.6-7.8-3.8-10.9-6.5s-5.7-6.5-7.8-11.3s-3.2-10.4-3.2-16.7c0-4.1,0.5-8,1.4-11.7s2.6-7.5,5.2-11.4c2.5-3.9,5.9-7.2,9.9-10
			c4.1-2.8,9.5-5.1,16.4-6.9s14.8-2.7,23.7-2.7c19.5,0,33.6,5.3,42.5,15.8c8.8,10.5,13.2,24.9,13.2,43.1c0,20.3-4.9,36.3-14.6,47.9
			c-9.7,11.6-24.8,17.4-45.3,17.4c-31.2,0-48.8-10.9-52.7-32.8l37.9-1.1c1.9,2.7,3.9,4.7,6,5.9s4.9,1.9,8.4,1.9
			c4.7,0,8.8-1,12.2-2.9s6.1-4.5,7.8-7.6c1.8-3.1,3.1-6.3,3.9-9.4c0.8-3.2,1.2-6.4,1.2-9.7v-0.9H100z M98.9,146.3
			c0-3.3-0.6-6-1.9-8.1c-1.2-2.1-3.1-3.6-5.5-4.6c-2.4-0.9-4.7-1.6-7-1.9c-2.3-0.3-5-0.4-8.3-0.4c-1.5,0-3.2,0.1-4.9,0.4
			c-1.7,0.3-3.8,0.9-6.1,1.8c-2.4,0.9-4.3,2.4-5.8,4.6c-1.5,2.2-2.2,4.8-2.2,7.8c0,9.9,6.8,14.8,20.3,14.8
			C91.8,160.7,98.9,155.9,98.9,146.3z"/>
		<path class="st0" d="M150.1,102.4h86.5c20.7,0,31.1,9.7,31.1,29.1c0,14.5-6.5,23.8-19.4,28c8,1.5,13.7,4.1,17.1,7.8
			c5,5.1,7.5,12.7,7.5,22.9c0,8.6-2,15.8-5.9,21.7c-4.1,6.1-9.5,10.1-16.1,12.1c-6.6,1.9-14.1,2.9-22.7,2.9H150L150.1,102.4
			L150.1,102.4z M186.6,176.8v21.7H225c7.9,0,11.8-3.8,11.8-11.5c0-6.8-3.1-10.2-9.2-10.2H186.6z M186.9,149.8h36
			c6.7,0,10.1-3.3,10.1-9.9c0-6.3-3.1-9.5-9.4-9.5h-36.7L186.9,149.8L186.9,149.8z"/>
	</g>
	<g>
		<path class="st1" d="M251.3,58.5c0,0-18,18.9-17.6,28.9c-35.5,5.7-65,6.6-86.5,6.2c0,0-14.7-0.3-86.1-6.2l0,0
			c0.5-9.9-17.6-28.9-17.6-28.9L147.4,49L251.3,58.5z"/>
		<path class="st2" d="M300,62.5c0,0-142.8-2.4-150,10.9C142.8,60.1,0,62.5,0,62.5c63.1-4.6,150-39,150-39S236.9,57.9,300,62.5z"/>
	</g>
	<path class="st3" d="M0.9,62.8c0,0,16,44.8,14.7,62.8"/>
	<ellipse class="st4" cx="15.7" cy="132.8" rx="6.4" ry="11.2"/>
</g>
</svg>
