<?xml version="1.0" encoding="UTF-8"?> <svg xmlns="http://www.w3.org/2000/svg" width="1453" height="954" viewBox="0 0 1453 954" fill="none"> <g clip-path="url(#clip0_122_1860)"> <path d="M688.937 945.593L644.271 943.546C650.846 876.123 660.073 803.871 668.773 741.5C669.65 759.948 671.406 777.886 673.838 795.253C677.339 820.069 682.456 844.63 689.157 868.78C688.683 892.974 688.61 918.572 688.937 945.593Z" fill="#CCCCCC"></path> <path d="M964.045 925.354V927.488C963.983 935.456 963.869 943.546 963.72 951.777H689.007C688.55 922.49 688.594 894.827 689.138 868.78C689.454 851.966 689.937 835.841 690.587 820.403C693.299 754.396 698.54 701.206 703.632 662.036C704.218 657.462 704.803 653.07 705.388 648.859C708.548 626.3 711.533 609.328 713.631 598.286C713.631 598.128 713.692 597.961 713.728 597.803C714.702 592.717 715.483 588.922 716.028 586.445C716.519 584.152 716.791 582.992 716.791 582.992C717.38 582.553 717.968 582.114 718.547 581.71L718.67 581.622C721.391 579.663 724.007 577.889 726.492 576.272C748.166 562.217 760.843 560.671 760.843 560.671L771.843 561.356H771.957L826.385 564.765L872.631 561.866L878.9 561.479L879.778 561.418L891.901 560.662C891.901 560.662 902.436 561.971 920.634 572.785C921.047 573.022 921.459 573.268 921.872 573.531C926.165 576.167 930.87 579.241 935.918 582.984C935.918 582.984 936.181 584.038 936.655 586.137C939.508 598.682 949.973 648.578 957.101 733.085C957.18 733.963 957.25 734.842 957.32 735.72C960.41 773.037 962.842 816.986 963.694 867.348C963.694 867.558 963.694 867.769 963.694 867.98C963.737 870.835 963.781 873.699 963.816 876.598C963.816 877.634 963.816 878.673 963.816 879.709C964.089 894.415 964.159 909.629 964.045 925.354Z" fill="url(#paint0_linear_122_1860)"></path> <path d="M999.634 951.778H689.008C688.552 922.499 688.596 894.828 689.14 868.783C682.439 844.634 677.322 820.073 673.821 795.256C671.372 777.889 669.643 759.969 668.756 741.503C668.879 740.625 668.993 739.747 669.116 738.93C682.029 646.525 693.696 576.293 693.696 576.293L696.514 574.536L697.05 574.202L699.42 572.726C700.126 572.28 700.859 571.879 701.615 571.523C702.77 570.919 703.981 570.428 705.231 570.056L712.351 567.93C713.132 567.781 715.406 569.344 715.59 570.109C716.029 571.988 716.969 575.827 718.522 581.528C718.526 581.587 718.526 581.646 718.522 581.704C719.093 583.812 719.751 586.158 720.489 588.732C723.122 597.999 726.853 610.377 731.954 625.706C744.595 663.699 757.623 668.495 832.637 745.246C849.501 762.49 867.014 778.899 884.053 794.439C887.029 797.157 889.987 799.839 892.928 802.486L893.868 803.364L894.675 804.084C906.632 814.872 918.22 825.167 929.035 834.997L929.246 835.182L931.239 837C933.96 839.486 936.708 842.007 939.447 844.537C948.304 852.733 956.495 860.569 963.737 868.009C970.163 874.624 975.852 880.939 980.61 886.939C983.147 890.128 985.412 893.229 987.396 896.224C993.172 905.009 996.5 913.029 996.693 920.259C996.921 926.391 998.036 937.389 999.634 951.778Z" fill="#E6E6E6"></path> <path d="M643.455 951.778C643.393 952.437 643.323 953.096 643.262 953.754L643.446 951.778H643.455Z" fill="#CCCCCC"></path> <path d="M696.514 574.526C695.882 579.533 695.18 585.278 694.416 591.7C694.355 592.253 694.284 592.815 694.214 593.386C689.474 633.321 682.416 697.922 676.06 769.437C675.299 777.94 674.553 786.543 673.821 795.246C671.372 777.879 653.981 764.587 653.095 746.122C653.218 745.244 661.733 732.576 661.873 731.724C674.787 639.32 693.714 576.239 693.714 576.239L696.514 574.526Z" fill="#CCCCCC"></path> <path d="M987.467 896.207L974.492 866.832C973.21 845.204 967.75 800.561 958.444 730.338C928.333 799.226 879.883 794.465 879.883 794.465C878.022 819.633 975.247 884.426 975.247 884.426C975.247 884.426 975.247 883.715 975.203 882.265L987.467 896.207Z" fill="#E6E6E6"></path> <path d="M827.466 625.054C827.466 625.054 771.87 601.336 771.87 558.037C771.87 552.327 778.155 550.86 802.525 548.936C802.341 547.442 802.113 545.94 801.867 544.456C807.748 543.814 814.35 543.191 821.751 542.62L821.645 540.863C825.727 541.118 829.546 541.443 833.251 541.794H833.356C838.492 542.286 843.197 542.857 847.56 543.472C847.253 545.431 846.981 547.311 846.752 549.059C871.184 551.431 877.961 551.395 879.883 561.647C879.883 604.964 827.466 625.054 827.466 625.054Z" fill="#9C9A9A"></path> <path d="M802.525 552.064C799.251 526.185 787.312 501.395 787.312 501.395H861.439C852.327 519.843 848.42 539.063 846.752 552.187C871.184 554.559 877.961 554.524 879.883 564.767C879.883 608.048 827.466 628.147 827.466 628.147C827.466 628.147 771.87 604.429 771.87 561.13C771.87 555.446 778.155 553.979 802.525 552.064Z" fill="#95B74C"></path> <path d="M861.439 501.395C852.327 519.843 848.42 539.063 846.752 552.187C871.183 554.559 877.961 554.524 879.883 564.767C879.883 608.048 827.465 628.147 827.465 628.147C871.412 606.335 879.172 573.296 875.643 564.767C872.114 556.237 840.168 559.575 840.168 559.575L842.802 547.11L837.535 544.255L839.65 551.282C828.036 549.93 808.407 537.227 808.407 537.227L800.602 540.925C797.577 527.316 793.122 514.066 787.312 501.395H861.439Z" fill="#779332"></path> <path d="M706.915 578.249C706.915 578.249 766.242 757.111 827.579 818.778C889.075 880.606 971.551 932.364 971.551 932.364C971.551 932.364 752.143 732.611 706.915 578.249Z" fill="#CCCCCC"></path> <path d="M832.031 951.778H797.644C760.203 894.142 725.984 803.319 703.633 662.038C700.209 640.37 697.069 617.489 694.213 593.395C693.801 589.882 693.388 586.289 692.993 582.696C693.169 583.811 693.625 586.912 694.415 591.709C696.241 602.83 699.797 623.069 705.406 648.878C723.35 731.55 762.231 871.224 832.031 951.778Z" fill="#CCCCCC"></path> <path d="M744.84 951.777H719.119C707.043 924.906 697.022 897.164 689.139 868.779C682.438 844.631 677.321 820.069 673.82 795.253C671.371 777.886 669.642 759.966 668.755 741.5C668.661 739.579 668.576 737.649 668.5 735.711C668.5 735.711 668.702 736.818 669.115 738.927C670.107 743.943 672.328 754.607 676.059 769.444C679.527 783.227 684.302 800.612 690.588 820.394C702.615 858.212 720.19 904.798 744.84 951.777Z" fill="#CCCCCC"></path> <path d="M892.99 802.494C892.99 802.494 976.589 876.469 980.68 885.621C984.771 894.775 925.322 862.888 892.99 802.494Z" fill="#CCCCCC"></path> <path d="M957.408 735.711C957.408 735.711 947.927 795.183 898.591 794.155C861.58 793.382 930.142 819.815 952.677 786.363C959.603 776.015 958.295 754.537 957.408 735.711Z" fill="#CCCCCC"></path> <path d="M681.494 275.124C681.494 307.943 677.921 334.551 657.054 334.551C636.187 334.551 605.918 307.943 605.918 275.124C605.918 242.305 622.835 215.705 643.666 215.705C664.498 215.705 681.494 242.305 681.494 275.124Z" fill="#FFC7AE"></path> <path d="M643.701 219.41C664.427 219.41 681.247 245.658 681.449 278.178C681.449 277.168 681.449 276.158 681.449 275.148C681.449 242.329 664.524 215.729 643.701 215.729C622.878 215.729 605.952 242.329 605.952 275.148C605.952 275.596 605.952 276.026 605.996 276.474C606.751 244.727 623.343 219.41 643.701 219.41Z" fill="#E5A58C"></path> <path d="M657.054 331.195C636.45 331.195 606.69 305.236 605.962 272.979C605.962 273.691 605.918 274.403 605.918 275.123C605.918 307.942 636.187 334.55 657.054 334.55C677.921 334.55 681.494 307.942 681.494 275.123C681.494 274.921 681.494 274.719 681.494 274.517C681.275 306.062 677.342 331.195 657.054 331.195Z" fill="#E5A58C"></path> <path d="M643.7 246.302C655.252 246.302 664.646 260.779 664.979 278.805C664.979 277.592 664.979 276.362 664.979 275.115C664.979 256.606 655.437 241.602 643.665 241.602C631.892 241.602 622.359 256.606 622.359 275.115C622.359 275.827 622.359 276.529 622.446 277.232C623.316 259.944 632.489 246.302 643.7 246.302Z" fill="#E5A58C"></path> <path d="M948.673 275.719C948.673 308.538 952.238 335.138 973.105 335.138C993.972 335.138 1024.28 308.538 1024.28 275.719C1024.28 242.9 1007.37 216.292 986.536 216.292C965.704 216.292 948.673 242.9 948.673 275.719Z" fill="#FFC7AE"></path> <path d="M986.457 219.982C965.73 219.982 948.91 246.23 948.708 278.741C948.708 277.74 948.708 276.73 948.708 275.719C948.708 242.9 965.625 216.292 986.457 216.292C1007.29 216.292 1024.21 242.9 1024.21 275.719C1024.21 276.159 1024.21 276.598 1024.21 277.046C1023.41 245.325 1006.81 219.982 986.457 219.982Z" fill="#E5A58C"></path> <path d="M973.104 331.79C993.717 331.79 1023.48 305.832 1024.21 273.566C1024.21 274.287 1024.21 274.998 1024.21 275.719C1024.21 308.538 993.936 335.137 973.069 335.137C952.202 335.137 948.638 308.538 948.638 275.719C948.638 275.517 948.638 275.315 948.638 275.112C948.884 306.658 952.826 331.79 973.104 331.79Z" fill="#E5A58C"></path> <path d="M986.457 246.899C974.904 246.899 965.52 261.367 965.177 279.402C965.177 278.189 965.177 276.96 965.177 275.712C965.177 257.203 974.72 242.199 986.483 242.199C998.247 242.199 1007.79 257.203 1007.79 275.712C1007.79 276.424 1007.79 277.127 1007.71 277.829C1006.84 260.533 997.667 246.899 986.457 246.899Z" fill="#E5A58C"></path> <path d="M647.563 272.997C647.563 409.693 647.563 604.059 820.601 604.059C997.29 604.059 993.647 409.693 993.647 272.997C993.647 136.301 993.647 25.4751 820.601 25.4751C647.554 25.4751 647.563 136.31 647.563 272.997Z" fill="#F8C5AD"></path> <path d="M647.563 272.997C647.563 409.693 647.563 604.059 820.601 604.059C997.29 604.059 993.647 409.693 993.647 272.997C993.647 265.554 993.647 258.201 993.647 250.939C993.647 249.235 993.647 247.205 993.647 244.913C992.865 121.437 981.69 25.4751 820.706 25.4751C647.563 25.4927 647.563 136.31 647.563 272.997ZM655.078 257.316C657.36 171.536 676.024 131.329 676.024 131.329C706.082 122.614 717.688 72.323 717.688 72.323C717.688 75.6436 720.427 83.7429 720.427 83.7429C734.771 65.6468 777.12 71.6817 826.412 83.7429C875.705 95.8041 929.439 83.7429 929.439 83.7429C933.539 114.568 966.31 128.641 966.31 128.641C986.799 166.177 986.343 257.316 986.343 257.316C988.739 367.87 946.496 333.048 946.496 333.048C910.31 292.859 820.618 292.859 820.618 292.859C771.211 292.859 721.111 312.29 681.502 336.781C641.892 361.273 655.078 257.334 655.078 257.334V257.316Z" fill="#F1B69A"></path> <path d="M658.949 520.079C680.808 592.455 767.551 604.077 767.551 604.077L761.406 613.239C770.974 614.574 796.924 611.227 796.924 611.227C806.484 615.909 837.911 621.944 837.911 621.944C835.172 619.309 833.812 613.239 833.812 613.239C849.526 619.265 876.828 618.598 876.828 618.598C865.214 617.922 864.538 611.896 864.538 611.896C977.248 593.123 986.351 519.411 986.351 519.411C999.519 454.406 993.638 242.848 993.638 242.848C993.638 242.848 992.953 125.566 993.638 89.3821C994.323 53.1991 951.974 35.7969 951.974 35.7969C976.554 -28.541 755.252 11.6658 731.347 21.0477C707.443 30.4296 685.584 17.0244 685.584 17.0244C682.845 31.0796 695.144 43.1671 695.144 43.1671C633.693 78.683 647.554 242.874 647.554 242.874C638.021 382.25 658.949 520.079 658.949 520.079ZM655.078 242.848C657.334 157.041 676.024 116.86 676.024 116.86C706.082 108.146 717.688 57.8549 717.688 57.8549C717.688 61.1754 720.426 69.2747 720.426 69.2747C734.771 51.1786 777.119 57.2136 826.412 69.2747C875.704 81.3359 929.439 69.2747 929.439 69.2747C933.539 100.099 966.31 114.181 966.31 114.181C986.799 151.708 986.343 242.848 986.343 242.848C988.739 353.401 946.496 318.588 946.496 318.588C910.31 278.372 820.618 278.372 820.618 278.372C771.211 278.372 721.111 297.804 681.502 322.295C641.892 346.786 655.078 242.848 655.078 242.848Z" fill="#E5E5E5"></path> <g style="mix-blend-mode:multiply"> <path d="M820.618 278.374C839.454 278.74 858.213 280.87 876.653 284.734C875.36 286.354 873.847 287.786 872.158 288.986C872.158 288.986 832.575 311.255 796.538 287.633C792.605 285.05 790.885 282.714 790.893 280.605C800.734 279.144 810.668 278.399 820.618 278.374Z" fill="#F6AE9C"></path> </g> <path d="M863.95 282.344C863.95 282.344 824.375 304.604 788.33 280.991C752.285 257.378 901.83 254.146 863.95 282.344Z" fill="#FFC7AE"></path> <path d="M796.915 611.2C796.915 611.2 770.966 614.547 761.397 613.211L767.542 604.049C767.542 604.049 696.048 594.509 666.516 538.543C667.21 539.588 704.572 595.361 792.833 601.792L782.685 607.159L809.899 601.792L822.286 610.919C820.899 609.346 819.363 605.367 823.559 595.765C823.559 595.765 833.119 602.24 852.932 604.032C852.932 604.032 845.418 600.448 845.418 591.733C845.418 591.733 958.804 587.042 979.978 513.323C1001.15 439.603 985.245 118.142 986.351 116.139C987.458 114.136 992.268 59.8386 940.36 38.3956C940.36 38.3956 957.461 6.49894 904.894 0.666016C938.376 3.19596 960.709 12.8414 951.974 35.7163C951.974 35.7163 994.323 53.136 993.638 89.3021C992.953 125.468 993.638 242.768 993.638 242.768C993.638 242.768 999.555 454.317 986.351 519.331C986.351 519.331 977.248 593.042 864.538 611.815C864.538 611.815 865.223 617.841 876.828 618.517C876.828 618.517 849.509 619.185 833.812 613.159C833.812 613.159 835.173 619.185 837.912 621.864C837.912 621.943 806.484 615.908 796.915 611.2Z" fill="#CECECE"></path> <path d="M774.029 146.623C767.665 148.714 762.88 149.935 758.5 150.954C754.119 151.973 750.458 152.711 746.929 153.335L735.859 155.092C731.584 155.549 727.081 156.708 720.207 157.516C720.017 154.394 720.487 151.267 721.585 148.338C722.683 145.409 724.385 142.745 726.58 140.518C728.617 138.094 731.33 136.442 734.069 134.791C736.915 133.378 739.952 132.39 743.084 131.857C749.183 130.793 755.461 131.56 761.125 134.062C766.524 136.548 771.396 140.43 774.029 146.623Z" fill="#E5E5E5"></path> <path d="M870.709 138.118C877.083 140.209 881.858 141.421 886.248 142.44C890.637 143.459 894.289 144.197 897.818 144.83L908.879 146.543C913.155 147 917.658 148.159 924.532 148.959C924.725 145.838 924.251 142.714 923.154 139.787C922.056 136.86 920.362 134.196 918.167 131.969C916.122 129.545 913.409 127.893 910.679 126.233C907.826 124.824 904.788 123.836 901.654 123.299C895.553 122.239 889.276 123.009 883.614 125.513C878.215 128.051 873.343 131.925 870.709 138.118Z" fill="#E5E5E5"></path> <path d="M745.746 186.625C734.014 192.077 728.624 204.642 728.062 212.239L797.078 214.863C795.655 210.631 790.611 198.85 782.711 192.524C772.633 184.455 760.96 179.553 745.746 186.625Z" fill="#D2927A"></path> <mask id="mask0_122_1860" style="mask-type:alpha" maskUnits="userSpaceOnUse" x="728" y="188" width="70" height="39"> <path d="M754.54 188.28C740.408 189.87 732.315 202.485 728.018 212.653C734.414 220.098 746.609 225.166 762.367 226.386C778.124 227.606 795.983 218.502 797.038 216.598C798.092 214.695 795.58 209.983 790.618 204.954C785.657 199.926 775.328 185.941 754.54 188.28Z" fill="white"></path> </mask> <g mask="url(#mask0_122_1860)"> <path d="M754.54 188.28C740.408 189.87 732.315 202.485 728.018 212.653C734.414 220.098 746.609 225.166 762.367 226.386C778.124 227.606 795.983 218.502 797.038 216.598C798.092 214.695 795.58 209.983 790.618 204.954C785.657 199.926 775.328 185.941 754.54 188.28Z" fill="white"></path> <circle cx="761.375" cy="207.185" r="19.1968" transform="rotate(0.683175 761.375 207.185)" fill="url(#paint1_linear_122_1860)"></circle> <circle cx="761.376" cy="207.186" r="12.0127" transform="rotate(0.683175 761.376 207.186)" fill="black"></circle> <circle cx="756.024" cy="199.84" r="6.54511" transform="rotate(0.683175 756.024 199.84)" fill="white"></circle> </g> <path d="M915.729 186.625C927.461 192.077 932.851 204.642 933.413 212.239L864.397 214.863C865.82 210.631 870.864 198.85 878.764 192.524C888.842 184.455 900.515 179.553 915.729 186.625Z" fill="#D2927A"></path> <mask id="mask1_122_1860" style="mask-type:alpha" maskUnits="userSpaceOnUse" x="864" y="188" width="70" height="39"> <path d="M906.935 188.28C921.066 189.87 929.159 202.485 933.457 212.653C927.061 220.098 914.866 225.166 899.108 226.386C883.351 227.606 865.492 218.502 864.437 216.598C863.383 214.695 865.895 209.983 870.857 204.954C875.818 199.926 886.147 185.941 906.935 188.28Z" fill="white"></path> </mask> <g mask="url(#mask1_122_1860)"> <path d="M906.935 188.28C921.066 189.87 929.159 202.485 933.457 212.653C927.061 220.098 914.866 225.166 899.108 226.386C883.351 227.606 865.492 218.502 864.437 216.598C863.383 214.695 865.895 209.983 870.857 204.954C875.818 199.926 886.147 185.941 906.935 188.28Z" fill="white"></path> <circle r="19.1968" transform="matrix(-0.999929 0.0119234 0.0119234 0.999929 900.1 207.185)" fill="url(#paint2_linear_122_1860)"></circle> <circle r="12.0127" transform="matrix(-0.999929 0.0119234 0.0119234 0.999929 900.099 207.186)" fill="black"></circle> <circle r="6.54511" transform="matrix(-0.999929 0.0119234 0.0119234 0.999929 905.45 199.84)" fill="white"></circle> </g> <path d="M764.284 352.987C776.302 364.592 789.339 359.277 804.061 363.731C818.721 368.36 834.101 382.495 850.746 379.763C843.722 384.747 835.583 387.93 827.043 389.03C818.293 390.247 809.381 389.534 800.935 386.94C784.028 381.713 769.701 368.799 764.284 352.987Z" fill="#6C1C00"></path> <path d="M722.059 251.843C715.352 246.853 708.258 242.083 701.069 237.603C693.883 233.084 686.467 228.944 678.85 225.199C671.27 221.36 663.292 218.364 655.059 216.265C650.94 215.26 646.699 214.839 642.462 215.018C638.19 215.152 634.077 216.665 630.734 219.331H630.69C633.762 216.318 638.064 214.711 642.365 214.175C646.711 213.707 651.1 213.86 655.402 214.632C663.943 216.222 672.282 218.747 680.272 222.16C688.259 225.469 696.07 229.188 703.676 233.299C711.305 237.401 718.714 241.705 726.053 246.475C726.427 246.712 726.749 247.022 727.002 247.386C727.254 247.749 727.43 248.159 727.522 248.593C727.612 249.026 727.616 249.473 727.53 249.908C727.445 250.342 727.275 250.755 727.027 251.122C726.519 251.867 725.74 252.385 724.856 252.564C723.972 252.742 723.054 252.568 722.296 252.08L722.12 251.957L722.059 251.843Z" fill="#404041"></path> <path d="M939.131 242.305C947.91 237.579 956.688 232.976 965.537 228.522C969.979 226.299 974.448 224.13 978.977 222.039C981.242 221.002 983.534 219.992 985.869 219.052C987.036 218.587 988.221 218.174 989.442 217.735C990.074 217.541 990.679 217.339 991.355 217.19C992.154 216.963 992.988 216.907 993.813 217.023C994.086 217.055 994.331 217.18 994.516 217.377C994.7 217.575 994.806 217.83 994.823 218.1C994.832 218.369 994.753 218.634 994.586 218.849C994.428 219.064 994.191 219.214 993.928 219.272L993.216 219.448C992.804 219.491 992.4 219.573 992.005 219.693C991.47 219.825 990.908 220.045 990.355 220.238C989.249 220.669 988.134 221.117 987.019 221.652C984.798 222.663 982.629 223.761 980.417 224.885C976.028 227.143 971.718 229.515 967.407 231.913C958.804 236.744 950.271 241.743 941.826 246.846C941.22 247.208 940.492 247.319 939.807 247.155C939.122 246.991 938.525 246.565 938.148 245.968C937.788 245.373 937.682 244.661 937.849 243.987C938.007 243.312 938.437 242.73 939.025 242.366L939.131 242.305Z" fill="#404041"></path> <path opacity="0.25" d="M865.391 259.82C865.54 281.738 882.069 299.614 902.339 299.746C922.609 299.878 938.911 282.177 938.762 260.295C938.613 238.412 922.083 220.501 901.813 220.369C881.542 220.237 865.215 237.859 865.391 259.82Z" fill="white"></path> <path d="M898.942 240.493C898.942 246.414 903.331 251.237 908.598 251.263C913.865 251.289 918.149 246.537 918.106 240.616C918.062 234.695 913.716 229.882 908.449 229.846C903.182 229.811 898.907 234.616 898.942 240.493Z" fill="white"></path> <path d="M914.884 255.048C914.84 255.983 915.174 256.896 915.797 257.592C916.42 258.288 917.289 258.712 918.22 258.773C918.676 258.752 919.133 258.639 919.545 258.443C919.958 258.245 920.335 257.967 920.634 257.624C920.941 257.281 921.178 256.881 921.328 256.447C921.477 256.012 921.538 255.552 921.512 255.092C921.556 254.159 921.231 253.246 920.608 252.549C919.976 251.853 919.106 251.429 918.176 251.368C917.719 251.39 917.263 251.502 916.85 251.699C916.438 251.896 916.069 252.175 915.762 252.518C915.454 252.86 915.218 253.261 915.068 253.695C914.919 254.13 914.858 254.59 914.884 255.048Z" fill="white"></path> <path d="M943.046 256.208C940.992 233.553 923.206 215.623 901.786 215.483C879.058 215.333 860.711 235.178 860.869 259.722C861.027 284.266 879.664 304.356 902.392 304.523C923.856 304.663 941.396 286.954 943.143 264.325L943.046 256.208ZM869.893 259.818C869.762 239.737 884.071 223.485 901.795 223.6C919.519 223.714 934.066 240.15 934.197 260.231C934.329 280.313 920.02 296.564 902.295 296.45C884.571 296.336 870.034 279.873 869.893 259.818Z" fill="#404041"></path> <path opacity="0.25" d="M728.442 256.87C728.591 278.831 745.121 296.663 765.391 296.795C785.661 296.927 801.955 279.226 801.814 257.344C801.674 235.462 785.135 217.55 764.856 217.418C744.577 217.286 728.284 234.952 728.442 256.87Z" fill="white"></path> <path d="M762.539 241.012C762.539 246.933 766.928 251.755 772.196 251.782C777.463 251.808 781.738 247.056 781.703 241.135C781.668 235.214 777.314 230.4 772.046 230.365C766.779 230.33 762.504 235.1 762.539 241.012Z" fill="white"></path> <path d="M778.479 255.532C778.441 256.467 778.767 257.38 779.391 258.076C780.013 258.774 780.883 259.201 781.815 259.266C782.74 259.209 783.604 258.79 784.221 258.099C784.837 257.408 785.156 256.501 785.107 255.576C785.149 254.642 784.823 253.73 784.199 253.033C783.575 252.337 782.704 251.913 781.771 251.852C781.312 251.873 780.863 251.985 780.448 252.183C780.032 252.38 779.66 252.658 779.354 253.001C779.047 253.344 778.812 253.744 778.662 254.179C778.512 254.613 778.45 255.074 778.479 255.532Z" fill="white"></path> <path d="M724.114 260.927C726.168 283.591 743.954 301.52 765.374 301.661C787.566 301.802 805.545 282.871 806.23 259.126C819.477 246.564 831.635 240.863 841.345 242.734C854.671 245.282 860.956 260.883 861.018 261.041L869.586 258.476C869.261 257.659 861.58 238.395 843.188 234.837C831.609 232.588 818.915 237.2 805.361 248.4C801.349 228.134 784.617 212.762 764.75 212.639C743.286 212.498 725.746 230.208 724 252.837L724.114 260.927ZM732.963 256.939C732.831 236.857 747.14 220.615 764.864 220.729C782.589 220.843 797.126 237.27 797.267 257.361C797.407 277.451 783.089 293.685 765.356 293.57C747.623 293.456 733.103 277.029 732.963 256.939Z" fill="#404041"></path> <path d="M1451.32 953.754H0.0625L212.244 814.642L1246.4 827.985L1451.32 953.754Z" fill="#82563B"></path> <path d="M331.644 559.513C291.21 559.513 258.43 565.733 258.43 573.393C258.43 581.053 291.21 587.272 331.644 587.272C372.079 587.272 404.868 581.062 404.868 573.393C404.868 565.724 372.097 559.513 331.644 559.513Z" fill="url(#paint3_linear_122_1860)"></path> <path d="M420.644 449.033L407.383 445.338L352.444 642.77L365.705 646.465L420.644 449.033Z" fill="url(#paint4_linear_122_1860)"></path> <path d="M407.026 446.605L409.054 448.476C410.127 449.468 411.413 450.198 412.814 450.611C414.215 451.024 415.692 451.108 417.131 450.856L420.291 450.303L427.577 424.09L420.827 422.21L414.322 420.392L407.026 446.605Z" fill="url(#paint5_linear_122_1860)"></path> <path d="M414.322 420.393L416.64 411.336L430.045 415.5L427.578 424.091L424.067 424.363C421.68 424.548 419.304 423.899 417.342 422.527L414.322 420.393Z" fill="url(#paint6_linear_122_1860)"></path> <path d="M430.033 415.615C430.49 414.07 427.842 411.924 424.118 410.819C420.395 409.716 417.006 410.074 416.548 411.618C416.092 413.162 418.74 415.308 422.464 416.412C426.187 417.516 429.576 417.159 430.033 415.615Z" fill="url(#paint7_linear_122_1860)"></path> <g style="mix-blend-mode:screen" opacity="0.25"> <path d="M430.033 415.615C430.49 414.07 427.842 411.924 424.118 410.819C420.395 409.716 417.006 410.074 416.548 411.618C416.092 413.162 418.74 415.308 422.464 416.412C426.187 417.516 429.576 417.159 430.033 415.615Z" fill="white"></path> </g> <path d="M425.711 413.83C425.922 413.119 424.536 412.081 422.616 411.511C420.697 410.942 418.969 411.058 418.758 411.77C418.548 412.481 419.934 413.519 421.854 414.089C423.774 414.658 425.5 414.542 425.711 413.83Z" fill="#AF574B"></path> <path d="M436.82 444.38L423.514 440.85L371.024 638.947L384.329 642.478L436.82 444.38Z" fill="url(#paint8_linear_122_1860)"></path> <path d="M423.109 442.143L425.172 443.997C426.256 444.975 427.552 445.689 428.957 446.084C430.363 446.479 431.84 446.543 433.275 446.272L436.417 445.675L443.388 419.382L436.611 417.626L430.079 415.869L423.109 442.143Z" fill="url(#paint9_linear_122_1860)"></path> <path d="M430.079 415.852L432.291 406.769L445.767 410.757L443.414 419.383L439.902 419.699C437.516 419.914 435.13 419.293 433.152 417.942L430.079 415.852Z" fill="url(#paint10_linear_122_1860)"></path> <path d="M445.754 410.965C446.192 409.415 443.518 407.3 439.781 406.243C436.045 405.184 432.66 405.583 432.222 407.133C431.784 408.683 434.458 410.797 438.194 411.855C441.931 412.914 445.316 412.515 445.754 410.965Z" fill="url(#paint11_linear_122_1860)"></path> <g style="mix-blend-mode:screen" opacity="0.25"> <path d="M445.754 410.968C446.192 409.418 443.518 407.304 439.781 406.246C436.045 405.188 432.66 405.586 432.222 407.136C431.784 408.686 434.458 410.801 438.194 411.858C441.931 412.917 445.316 412.518 445.754 410.968Z" fill="white"></path> </g> <path d="M441.427 409.236C441.629 408.521 440.231 407.5 438.304 406.954C436.378 406.409 434.652 406.546 434.45 407.26C434.248 407.974 435.647 408.995 437.573 409.541C439.5 410.087 441.225 409.95 441.427 409.236Z" fill="#AF574B"></path> <path d="M420.446 459.255L407.186 455.561L352.247 652.992L365.507 656.687L420.446 459.255Z" fill="url(#paint12_linear_122_1860)"></path> <path d="M406.832 456.83L408.869 458.71C409.943 459.699 411.23 460.427 412.631 460.839C414.032 461.25 415.507 461.333 416.945 461.082L420.097 460.529L427.392 434.315L420.632 432.436L414.163 430.617L406.832 456.83Z" fill="url(#paint13_linear_122_1860)"></path> <path d="M414.164 430.619L416.482 421.562L429.887 425.726L427.429 434.317L423.917 434.589C421.531 434.778 419.153 434.129 417.193 432.754L414.164 430.619Z" fill="url(#paint14_linear_122_1860)"></path> <path d="M429.838 425.847C430.295 424.303 427.647 422.156 423.924 421.052C420.2 419.948 416.81 420.306 416.354 421.85C415.896 423.394 418.544 425.541 422.268 426.645C425.992 427.749 429.38 427.391 429.838 425.847Z" fill="url(#paint15_linear_122_1860)"></path> <g style="mix-blend-mode:screen" opacity="0.25"> <path d="M429.838 425.847C430.295 424.303 427.647 422.156 423.924 421.052C420.2 419.948 416.81 420.306 416.354 421.85C415.896 423.394 418.544 425.541 422.268 426.645C425.992 427.749 429.38 427.391 429.838 425.847Z" fill="white"></path> </g> <path d="M425.519 424.057C425.729 423.344 424.344 422.306 422.424 421.738C420.504 421.168 418.778 421.283 418.567 421.996C418.356 422.707 419.741 423.746 421.661 424.315C423.581 424.883 425.308 424.768 425.519 424.057Z" fill="#AF574B"></path> <path d="M262.25 467.698L248.761 470.439L289.523 671.282L303.013 668.541L262.25 467.698Z" fill="url(#paint16_linear_122_1860)"></path> <path d="M249.045 471.71L251.678 472.457C253.083 472.852 254.56 472.918 255.995 472.648C257.429 472.378 258.782 471.781 259.948 470.902L262.511 468.969L257.095 442.308L250.221 443.705L243.602 445.049L249.045 471.71Z" fill="url(#paint17_linear_122_1860)"></path> <path d="M243.627 445.051L241.582 435.932L255.408 433.534L257.12 442.319L254.127 444.155C252.085 445.409 249.67 445.912 247.297 445.578L243.627 445.051Z" fill="url(#paint18_linear_122_1860)"></path> <path d="M249.083 437.827C252.901 437.116 255.758 435.256 255.463 433.672C255.169 432.089 251.835 431.381 248.017 432.093C244.199 432.803 241.342 434.663 241.637 436.247C241.931 437.83 245.265 438.538 249.083 437.827Z" fill="url(#paint19_linear_122_1860)"></path> <g style="mix-blend-mode:screen" opacity="0.25"> <path d="M249.083 437.827C252.901 437.116 255.758 435.256 255.463 433.672C255.169 432.089 251.835 431.381 248.017 432.093C244.199 432.803 241.342 434.663 241.637 436.247C241.931 437.83 245.265 438.538 249.083 437.827Z" fill="white"></path> </g> <path d="M244.288 434.582C246.25 434.221 247.733 433.339 247.6 432.612C247.466 431.885 245.767 431.587 243.805 431.948C241.842 432.308 240.36 433.19 240.493 433.917C240.627 434.646 242.325 434.943 244.288 434.582Z" fill="#AF574B"></path> <path d="M278.484 475.742L265.029 478.651L308.275 678.973L321.73 676.065L278.484 475.742Z" fill="url(#paint20_linear_122_1860)"></path> <path d="M265.276 479.96L267.91 480.672C269.321 481.049 270.799 481.095 272.23 480.807C273.662 480.519 275.007 479.904 276.162 479.012L278.699 477.053L272.993 450.444L266.137 451.929L259.535 453.361L265.276 479.96Z" fill="url(#paint21_linear_122_1860)"></path> <path d="M259.534 453.368L257.375 444.294L271.175 441.729L272.992 450.513L270.025 452.393C267.997 453.668 265.589 454.199 263.212 453.895L259.534 453.368Z" fill="url(#paint22_linear_122_1860)"></path> <path d="M264.954 446.035C268.763 445.276 271.596 443.382 271.283 441.802C270.968 440.222 267.626 439.556 263.817 440.314C260.008 441.072 257.175 442.968 257.489 444.547C257.803 446.127 261.145 446.794 264.954 446.035Z" fill="url(#paint23_linear_122_1860)"></path> <g style="mix-blend-mode:screen" opacity="0.25"> <path d="M264.954 446.035C268.763 445.276 271.596 443.382 271.283 441.802C270.968 440.222 267.626 439.556 263.817 440.314C260.008 441.072 257.175 442.968 257.489 444.547C257.803 446.127 261.145 446.794 264.954 446.035Z" fill="white"></path> </g> <path d="M263.336 444.265C265.3 443.874 266.775 442.966 266.63 442.238C266.485 441.51 264.776 441.237 262.812 441.628C260.848 442.018 259.374 442.926 259.518 443.654C259.662 444.381 261.372 444.656 263.336 444.265Z" fill="#AF574B"></path> <path d="M268.494 479.852L255.003 482.593L295.766 683.437L309.255 680.695L268.494 479.852Z" fill="url(#paint24_linear_122_1860)"></path> <path d="M255.269 483.868L257.902 484.615C259.308 485.008 260.785 485.072 262.22 484.801C263.654 484.53 265.007 483.93 266.172 483.051L268.727 481.127L263.319 454.466L256.445 455.863L249.826 457.207L255.269 483.868Z" fill="url(#paint25_linear_122_1860)"></path> <path d="M249.878 457.208L247.824 448.081L261.659 445.691L263.415 454.476L260.422 456.312C258.378 457.563 255.965 458.065 253.592 457.735L249.878 457.208Z" fill="url(#paint26_linear_122_1860)"></path> <path d="M255.334 449.991C259.152 449.281 262.009 447.421 261.714 445.837C261.42 444.253 258.086 443.546 254.268 444.257C250.45 444.967 247.593 446.828 247.888 448.411C248.182 449.995 251.517 450.702 255.334 449.991Z" fill="url(#paint27_linear_122_1860)"></path> <g style="mix-blend-mode:screen" opacity="0.25"> <path d="M255.334 449.987C259.152 449.277 262.009 447.417 261.714 445.833C261.42 444.249 258.086 443.542 254.268 444.253C250.45 444.964 247.593 446.824 247.888 448.407C248.182 449.991 251.517 450.698 255.334 449.987Z" fill="white"></path> </g> <path d="M253.741 448.189C255.709 447.822 257.195 446.933 257.059 446.203C256.924 445.474 255.218 445.18 253.249 445.546C251.28 445.913 249.795 446.802 249.93 447.531C250.066 448.261 251.772 448.555 253.741 448.189Z" fill="#AF574B"></path> <path d="M129.837 840.891C129.837 840.891 142.022 859.997 137.633 870.345C133.243 880.693 136.114 889.61 133.876 892.579C131.637 895.548 126.141 903.428 126.853 903.542C127.564 903.656 139.143 911.975 141.364 911.949C143.585 911.922 442.377 905.105 442.377 905.105C442.377 905.105 503.231 902.127 505.733 901.029C508.235 899.931 511.475 896.918 511.966 896.892C512.458 896.866 524.827 877.39 523.256 858.609C521.684 839.828 521.07 835.479 521.07 835.479C521.07 835.479 434.863 833.722 411.502 832.774C388.142 831.825 276.31 834.943 273.826 835.479C271.341 836.015 190.489 835.479 190.489 835.479H145.718L129.837 840.891Z" fill="url(#paint28_linear_122_1860)"></path> <path d="M145.165 805.515C145.165 805.515 111.999 838.395 123.885 840.582C135.772 842.77 515.021 836.41 520.446 838.079C525.872 839.748 529.726 836.621 528.058 829.936C526.39 823.251 523.361 815.002 523.361 815.002L200.84 807.184L145.165 805.515Z" fill="#DBA731"></path> <path d="M135.158 723.793L129.838 786.102L170.22 832.757C170.22 832.757 187.427 813.343 183.986 795.502C182.985 790.231 183.051 784.813 184.18 779.567C185.31 774.323 187.479 769.358 190.561 764.967L181.782 761.365L178.341 759.336L135.158 723.793Z" fill="white"></path> <path d="M546.941 760.115V805.935C546.941 805.935 548.811 808.228 545.264 809.581C541.717 810.934 431.474 817.724 431.474 817.724L179.27 832.754L168.868 832.21C168.868 832.21 174.267 787.663 175.522 785.476C176.777 783.289 179.911 770.762 179.911 770.762L430.544 750.408L505.646 756.039L546.941 760.115Z" fill="url(#paint29_linear_122_1860)"></path> <path d="M543.492 804.892C543.492 804.892 551.945 809.583 533.835 810.216C515.724 810.848 168.64 831.509 168.64 831.509L132.367 783.915L135.492 726.613L178.99 772.952C178.99 772.952 541.551 757.921 545.484 760.425C549.417 762.929 543.211 762.937 549.47 762.937C555.729 762.937 562.638 749.761 549.47 745.368C536.302 740.976 474.368 713.428 474.368 713.428C474.368 713.428 133.929 714.675 132.367 717.188C130.804 719.7 124.334 781.315 128.091 786.7C131.849 792.084 157.5 833.662 164.383 835.331C171.265 837 539.664 815.917 545.089 814.669C550.514 813.422 552.384 807.984 549.672 806.315C547.779 805.288 545.642 804.797 543.492 804.892Z" fill="#841F25"></path> <path d="M404.876 573.428C404.876 581.097 372.096 587.307 331.652 587.307C291.209 587.307 258.438 581.097 258.438 573.428V737.084H258.508C259.956 744.506 292.148 750.445 331.661 750.445C371.174 750.445 403.357 744.506 404.805 737.084H404.876V573.428Z" fill="url(#paint30_linear_122_1860)"></path> <path d="M135.782 881.607C135.782 881.607 106.996 906.028 113.255 908.531C119.515 911.035 124.202 911.975 135.782 911.975C147.361 911.975 265.32 910.095 292.543 910.095C319.766 910.095 397.37 910.095 417.078 909.155C436.786 908.215 501.257 906.968 505.638 906.652C510.018 906.335 513.767 896.787 513.767 896.787C513.767 896.787 430.94 901.109 328.536 903.208C241.627 904.965 132.858 904.605 129.847 904.455C123.272 904.148 131.726 896.005 133.912 892.561C136.098 889.118 135.782 881.607 135.782 881.607Z" fill="#DBA731"></path> <g opacity="0.47"> <g filter="url(#filter0_f_122_1860)"> <path d="M1000.49 396.834C985.561 369.181 978.925 385.748 959.717 349.819C951.562 334.569 929.615 280.281 945.372 296.445C961.13 312.608 968.197 336.546 971.375 319.75C974.553 302.954 967.565 285.262 956.109 279.174C944.653 273.087 925.805 270.785 932.784 264.706C939.763 258.627 939.535 256.949 951.956 263.16C964.378 269.371 949.692 256.659 961.999 256.897C974.307 257.134 979.443 266.964 976.133 260.068C972.824 253.172 983.902 254.235 988.283 258.311C992.663 262.387 1015.89 260.788 1023.45 293.853C1031.01 326.918 1029.7 336.195 1033.88 356.223C1038.06 376.252 1038.78 386.258 1049 399.742C1059.21 413.226 1055.3 422.204 1055.3 422.204L1026.57 437.515C1026.57 437.515 1018.88 430.953 1000.49 396.834Z" fill="black" fill-opacity="0.61"></path> </g> </g> <path d="M1001.62 393.398C986.694 365.744 980.048 382.312 960.84 346.383C952.685 331.133 930.738 276.845 946.496 293.017C962.254 309.189 969.321 333.11 972.499 316.314C975.676 299.518 968.697 281.826 957.232 275.747C945.767 269.668 926.928 267.357 933.907 261.27C940.886 255.182 940.658 253.522 953.08 259.724C965.502 265.926 950.815 253.223 963.123 253.46C975.431 253.698 980.566 263.527 977.265 256.64C973.965 249.753 985.026 250.799 989.406 254.883C993.787 258.968 1017.02 257.361 1024.57 290.426C1032.13 323.491 1030.82 332.767 1035 352.796C1039.18 372.825 1039.9 382.83 1050.12 396.323C1060.34 409.816 1056.42 418.776 1056.42 418.776L1027.71 434.026C1027.71 434.026 1020 427.517 1001.62 393.398Z" fill="#F4BFAB"></path> <path d="M953.08 259.724C953.08 259.724 987.089 279.375 988.195 289.653L989.266 299.93C989.266 299.93 992.365 285.708 985.412 279.99C978.459 274.271 958.444 260.119 958.444 260.119C958.444 260.119 958.979 261.103 957.724 261.428C956.469 261.753 953.08 259.724 953.08 259.724Z" fill="#CC8971"></path> <path d="M1004.16 404.976L1051.42 382.927C1051.42 382.927 1110.59 560.04 1112.33 607.951C1114.08 655.862 1064.17 665.71 1035.56 683.094C1024.74 689.674 955.029 709.448 955.029 709.448L936.005 582.951C936.005 582.951 1008.7 597.946 1022.78 578.216C1036.86 558.486 1041.48 544.457 1036.59 523.752C1031.7 503.046 1004.16 404.976 1004.16 404.976Z" fill="url(#paint31_linear_122_1860)"></path> <path d="M972.358 254.656C977.204 259.856 982.55 264.565 988.318 268.711C998.642 276.327 1000.61 284.681 1001.14 287.492L1001.67 290.312C1001.67 290.312 1000.11 275.862 997.281 273.534C994.454 271.206 976.625 256.711 976.625 256.711L972.358 254.656Z" fill="#CC8971"></path> <path d="M598.333 850.246L561.138 911.176C561.138 911.176 603.065 917.439 740.118 914.936C877.172 912.432 897.195 909.858 897.195 915.524C897.195 921.19 901.584 925.582 914.094 925.582C926.604 925.582 942.256 921.823 942.256 921.823V916.192C942.256 916.192 1144.39 926.839 1199.47 930.59C1254.55 934.341 1278.96 924.959 1274.57 921.199C1270.19 917.439 1263.3 914.936 1263.3 914.936L619.402 819.395L606.884 838.185L598.333 850.246Z" fill="#472209"></path> <path d="M904.086 915.357C904.086 915.357 913.067 902.418 914.305 900.116C917.254 894.626 917.412 894.134 917.412 894.134C917.412 894.134 920.924 880.746 883.772 877.033C846.621 873.317 815.22 886.131 740.118 893.018C665.016 899.905 589.826 891.665 589.826 891.665L568.652 906.599C568.652 906.599 624.766 910.35 665.218 909.515C705.67 908.681 736.326 910.772 760.133 909.515C783.941 908.259 809.154 907.846 835.85 906.599C862.546 905.352 883.834 903.252 890.927 906.599C895.667 908.953 900.092 911.896 904.086 915.357Z" fill="url(#paint32_linear_122_1860)"></path> <path d="M1246.39 895.864L1266.41 920.786C1266.41 920.786 1157.55 919.108 1135.83 918.274C1114.1 917.439 995.64 912.854 981.874 913.266C968.109 913.679 950.587 910.341 945.162 910.341C939.737 910.341 938.903 909.094 936.383 911.22L933.881 913.31L916.754 894.063C916.754 894.063 927.657 889.091 938.086 887.818C948.515 886.544 1050.73 893.492 1077.02 895.864C1103.3 898.236 1204.31 894.327 1220.53 895.864C1236.76 897.402 1246.39 895.864 1246.39 895.864Z" fill="url(#paint33_linear_122_1860)"></path> <path d="M916.754 894.064L894.28 833.529L916.754 794.702C916.754 794.702 1010.69 816.83 1014.85 815.995C1019.01 815.161 1074.97 818.499 1092.27 819.334C1109.56 820.168 1150.44 822.259 1150.44 822.259L1246.39 895.864C1246.39 895.864 989.38 898.658 978.538 899.071C967.697 899.484 916.754 894.064 916.754 894.064Z" fill="url(#paint34_linear_122_1860)"></path> <path d="M616.207 843.116C616.207 843.116 710.709 809.735 713.65 810.13C716.591 810.525 752.443 828.92 789.577 830.589C826.711 832.258 835.473 830.589 848.395 832.258C861.317 833.927 894.289 833.514 894.289 833.514L916.763 894.046C916.763 894.046 916.227 888.231 882.192 884.857C846.068 881.291 773.337 893.475 762.864 895.847C752.391 898.219 717.811 897.428 710.297 899.079C702.782 900.731 633.114 901.557 628.11 901.557C623.107 901.557 594.312 899.079 594.312 899.079L583.875 895.847C583.875 895.847 583.049 892.333 585.551 890.708C588.053 889.083 599.597 863.777 600.37 863.478C601.142 863.18 616.207 843.116 616.207 843.116Z" fill="url(#paint35_linear_122_1860)"></path> <path d="M616.215 843.133L583.866 895.864L568.652 906.59L612.353 844.179L616.215 843.133Z" fill="#EAE0D3"></path> <path d="M910.696 914.628L917.5 900.327L929.053 914.628C929.053 914.628 925.085 918.142 920.493 918.142C915.902 918.142 910.696 914.628 910.696 914.628Z" fill="#261103"></path> <path d="M831.452 797.708L831.311 798.586C824.912 798.375 822.375 797.708 831.452 797.708Z" fill="#FFC7AE"></path> <path d="M999.994 840.006C999.695 840.674 999.353 841.322 998.966 841.947C997.667 844.282 995.543 846.048 993.014 846.902C989.643 847.837 986.211 848.526 982.743 848.966C981.348 849.168 979.829 849.353 978.196 849.52C961.516 851.198 932.845 850.82 894.28 839.233C876.601 833.962 883.386 837.257 868.682 835.719C853.978 834.182 843.918 834.841 839.247 834.024C834.577 833.207 826.413 830.405 826.413 830.405L831.311 798.631C839.695 798.938 854.724 798.473 858.982 794.739C866.497 788.169 899.442 777.17 916.754 781.238C926.165 783.451 930.984 787.554 935.962 791.568C940.131 794.941 944.407 798.253 951.605 800.353C952.913 800.73 954.186 801.082 955.424 801.389C970.418 805.237 980.075 804.771 987.466 810.868C995.473 817.465 996.737 817.667 1000.32 823.412C1000.41 823.553 1000.49 823.702 1000.57 823.86C1001.11 824.899 1001.49 826.017 1001.68 827.172C1002.37 831.523 1001.78 835.982 999.994 840.006Z" fill="#FFC7AE"></path> <path d="M594.821 743.629C592.881 764.167 587.369 806.649 599.554 823.287C616.392 846.267 670.196 847.084 738.767 843.72C860.791 837.711 849.167 837.281 848.553 814.643C847.06 759.643 749.802 805.955 681.96 791.584C643.035 783.335 699.412 602.716 696.357 575.801C695.058 564.31 635.125 578.251 616.207 633.726C604.382 668.433 596.999 720.561 594.821 743.629Z" fill="url(#paint36_linear_122_1860)"></path> <path d="M1001.68 827.126C999.493 826.318 997.167 825.439 995.297 824.71C988.713 822.051 981.971 819.812 975.106 818.008C965.958 815.566 952.597 810.637 951.403 810.181C954.748 811.151 958.145 811.911 961.578 812.456C969.031 813.774 982.928 818.087 999.326 823.384L1000.63 823.814C1001.15 824.858 1001.5 825.975 1001.68 827.126Z" fill="#C18167"></path> <path d="M982.743 848.965C981.348 849.167 979.829 849.353 978.196 849.519C969.602 846.233 939.456 837.22 939.456 837.22C939.456 837.22 946.549 838.099 955.802 840.145C959.866 841.024 969.602 844.353 979.241 847.753L982.743 848.965Z" fill="#C18167"></path> <path d="M999.994 840.003C999.695 840.671 999.353 841.319 998.967 841.945C996.447 841.119 992.707 839.845 989.152 838.431C983.007 835.927 982.48 836.454 973.614 833.011C964.747 829.567 951.272 828.1 951.272 828.1C953.967 828.168 956.662 828.411 959.322 828.829C966.055 830.005 972.71 831.61 979.241 833.634C984.368 835.11 994.332 838.229 999.994 840.003Z" fill="#C18167"></path> <path d="M955.424 801.344C955.213 801.976 952.852 801.809 951.131 801.712C948.094 801.546 937.831 799.367 924.69 798.743C911.548 798.12 923.127 795.923 929.079 793.42C931.326 792.592 933.635 791.961 935.988 791.531C940.158 794.905 944.433 798.216 951.631 800.316C952.913 800.685 954.186 801.036 955.424 801.344Z" fill="#C18167"></path> </g> <defs> <filter id="filter0_f_122_1860" x="924.274" y="248.071" width="138.762" height="196.444" filterUnits="userSpaceOnUse" color-interpolation-filters="sRGB"> <feFlood flood-opacity="0" result="BackgroundImageFix"></feFlood> <feBlend mode="normal" in="SourceGraphic" in2="BackgroundImageFix" result="shape"></feBlend> <feGaussianBlur stdDeviation="3.5" result="effect1_foregroundBlur_122_1860"></feGaussianBlur> </filter> <linearGradient id="paint0_linear_122_1860" x1="640.004" y1="897.366" x2="1276.63" y2="484.007" gradientUnits="userSpaceOnUse"> <stop stop-color="#0D4938"></stop> <stop offset="0.28" stop-color="#1E7439"></stop> <stop offset="0.63" stop-color="#80BA3F"></stop> <stop offset="0.69" stop-color="#91C03B"></stop> <stop offset="0.79" stop-color="#A6C835"></stop> <stop offset="0.89" stop-color="#B3CC32"></stop> <stop offset="0.99" stop-color="#B7CE31"></stop> </linearGradient> <linearGradient id="paint1_linear_122_1860" x1="761.375" y1="187.988" x2="761.375" y2="226.381" gradientUnits="userSpaceOnUse"> <stop stop-color="#173E11"></stop> <stop offset="1" stop-color="#096E04"></stop> </linearGradient> <linearGradient id="paint2_linear_122_1860" x1="19.1968" y1="0" x2="19.1968" y2="38.3936" gradientUnits="userSpaceOnUse"> <stop stop-color="#173E11"></stop> <stop offset="1" stop-color="#096E04"></stop> </linearGradient> <linearGradient id="paint3_linear_122_1860" x1="351.747" y1="587.273" x2="351.194" y2="553.352" gradientUnits="userSpaceOnUse"> <stop stop-color="#432918"></stop> <stop offset="1" stop-color="#91611C"></stop> </linearGradient> <linearGradient id="paint4_linear_122_1860" x1="382.636" y1="545.04" x2="396.985" y2="548.34" gradientUnits="userSpaceOnUse"> <stop stop-color="#E19D14"></stop> <stop offset="1" stop-color="#915725"></stop> </linearGradient> <linearGradient id="paint5_linear_122_1860" x1="400.743" y1="420.992" x2="414.76" y2="420.465" gradientUnits="userSpaceOnUse"> <stop stop-color="#B2B2B2"></stop> <stop offset="1" stop-color="#575756"></stop> </linearGradient> <linearGradient id="paint6_linear_122_1860" x1="419.621" y1="417.967" x2="428.499" y2="420.007" gradientUnits="userSpaceOnUse"> <stop stop-color="#DD7B68"></stop> <stop offset="1" stop-color="#A03227"></stop> </linearGradient> <linearGradient id="paint7_linear_122_1860" x1="417.809" y1="418.052" x2="425.603" y2="422.213" gradientUnits="userSpaceOnUse"> <stop stop-color="#DD7B68"></stop> <stop offset="1" stop-color="#C65D4F"></stop> </linearGradient> <linearGradient id="paint8_linear_122_1860" x1="400.002" y1="540.857" x2="414.392" y2="543.989" gradientUnits="userSpaceOnUse"> <stop stop-color="#E19D14"></stop> <stop offset="1" stop-color="#915725"></stop> </linearGradient> <linearGradient id="paint9_linear_122_1860" x1="407.729" y1="435.005" x2="421.761" y2="434.493" gradientUnits="userSpaceOnUse"> <stop stop-color="#B2B2B2"></stop> <stop offset="1" stop-color="#575756"></stop> </linearGradient> <linearGradient id="paint10_linear_122_1860" x1="435.408" y1="413.322" x2="444.31" y2="415.261" gradientUnits="userSpaceOnUse"> <stop stop-color="#DD7B68"></stop> <stop offset="1" stop-color="#A03227"></stop> </linearGradient> <linearGradient id="paint11_linear_122_1860" x1="433.597" y1="413.372" x2="441.439" y2="417.447" gradientUnits="userSpaceOnUse"> <stop stop-color="#DD7B68"></stop> <stop offset="1" stop-color="#C65D4F"></stop> </linearGradient> <linearGradient id="paint12_linear_122_1860" x1="382.443" y1="555.262" x2="396.792" y2="558.573" gradientUnits="userSpaceOnUse"> <stop stop-color="#E19D14"></stop> <stop offset="1" stop-color="#915725"></stop> </linearGradient> <linearGradient id="paint13_linear_122_1860" x1="400.376" y1="430.989" x2="414.393" y2="430.462" gradientUnits="userSpaceOnUse"> <stop stop-color="#B2B2B2"></stop> <stop offset="1" stop-color="#575756"></stop> </linearGradient> <linearGradient id="paint14_linear_122_1860" x1="419.433" y1="428.192" x2="428.311" y2="430.24" gradientUnits="userSpaceOnUse"> <stop stop-color="#DD7B68"></stop> <stop offset="1" stop-color="#A03227"></stop> </linearGradient> <linearGradient id="paint15_linear_122_1860" x1="417.607" y1="428.315" x2="425.393" y2="432.474" gradientUnits="userSpaceOnUse"> <stop stop-color="#DD7B68"></stop> <stop offset="1" stop-color="#C65D4F"></stop> </linearGradient> <linearGradient id="paint16_linear_122_1860" x1="272.103" y1="570.489" x2="286.385" y2="566.91" gradientUnits="userSpaceOnUse"> <stop stop-color="#E19D14"></stop> <stop offset="1" stop-color="#915725"></stop> </linearGradient> <linearGradient id="paint17_linear_122_1860" x1="236.171" y1="470.808" x2="247.86" y2="463.423" gradientUnits="userSpaceOnUse"> <stop stop-color="#B2B2B2"></stop> <stop offset="1" stop-color="#575756"></stop> </linearGradient> <linearGradient id="paint18_linear_122_1860" x1="247.229" y1="440.4" x2="256.064" y2="438.182" gradientUnits="userSpaceOnUse"> <stop stop-color="#DD7B68"></stop> <stop offset="1" stop-color="#A03227"></stop> </linearGradient> <linearGradient id="paint19_linear_122_1860" x1="245.09" y1="436.552" x2="253.926" y2="436.725" gradientUnits="userSpaceOnUse"> <stop stop-color="#DD7B68"></stop> <stop offset="1" stop-color="#C65D4F"></stop> </linearGradient> <linearGradient id="paint20_linear_122_1860" x1="289.611" y1="578.396" x2="303.848" y2="574.641" gradientUnits="userSpaceOnUse"> <stop stop-color="#E19D14"></stop> <stop offset="1" stop-color="#915725"></stop> </linearGradient> <linearGradient id="paint21_linear_122_1860" x1="260.228" y1="467.975" x2="272.122" y2="460.66" gradientUnits="userSpaceOnUse"> <stop stop-color="#B2B2B2"></stop> <stop offset="1" stop-color="#575756"></stop> </linearGradient> <linearGradient id="paint22_linear_122_1860" x1="263.164" y1="448.701" x2="271.963" y2="446.379" gradientUnits="userSpaceOnUse"> <stop stop-color="#DD7B68"></stop> <stop offset="1" stop-color="#A03227"></stop> </linearGradient> <linearGradient id="paint23_linear_122_1860" x1="260.877" y1="444.737" x2="269.703" y2="444.795" gradientUnits="userSpaceOnUse"> <stop stop-color="#DD7B68"></stop> <stop offset="1" stop-color="#C65D4F"></stop> </linearGradient> <linearGradient id="paint24_linear_122_1860" x1="278.342" y1="582.636" x2="292.636" y2="579.061" gradientUnits="userSpaceOnUse"> <stop stop-color="#E19D14"></stop> <stop offset="1" stop-color="#915725"></stop> </linearGradient> <linearGradient id="paint25_linear_122_1860" x1="242.738" y1="482.598" x2="254.428" y2="475.214" gradientUnits="userSpaceOnUse"> <stop stop-color="#B2B2B2"></stop> <stop offset="1" stop-color="#575756"></stop> </linearGradient> <linearGradient id="paint26_linear_122_1860" x1="253.476" y1="452.548" x2="262.315" y2="450.339" gradientUnits="userSpaceOnUse"> <stop stop-color="#DD7B68"></stop> <stop offset="1" stop-color="#A03227"></stop> </linearGradient> <linearGradient id="paint27_linear_122_1860" x1="251.333" y1="448.764" x2="260.169" y2="448.938" gradientUnits="userSpaceOnUse"> <stop stop-color="#DD7B68"></stop> <stop offset="1" stop-color="#C65D4F"></stop> </linearGradient> <linearGradient id="paint28_linear_122_1860" x1="126.835" y1="872.26" x2="523.449" y2="872.26" gradientUnits="userSpaceOnUse"> <stop stop-color="#E5C3A3"></stop> <stop offset="1" stop-color="#C9A07F"></stop> </linearGradient> <linearGradient id="paint29_linear_122_1860" x1="168.868" y1="791.581" x2="547.432" y2="791.581" gradientUnits="userSpaceOnUse"> <stop stop-color="#E5C3A3"></stop> <stop offset="1" stop-color="#C9A07F"></stop> </linearGradient> <linearGradient id="paint30_linear_122_1860" x1="258.438" y1="661.897" x2="404.876" y2="661.897" gradientUnits="userSpaceOnUse"> <stop stop-color="#432918"></stop> <stop offset="1" stop-color="#BE8839"></stop> </linearGradient> <linearGradient id="paint31_linear_122_1860" x1="936.005" y1="546.196" x2="1112.38" y2="546.196" gradientUnits="userSpaceOnUse"> <stop stop-color="#0D4938"></stop> <stop offset="0.28" stop-color="#1E7439"></stop> <stop offset="0.63" stop-color="#80BA3F"></stop> </linearGradient> <linearGradient id="paint32_linear_122_1860" x1="739.951" y1="908.725" x2="753.108" y2="873.042" gradientUnits="userSpaceOnUse"> <stop stop-color="#E5C3A3"></stop> <stop offset="1" stop-color="#C9A07F"></stop> </linearGradient> <linearGradient id="paint33_linear_122_1860" x1="1094.27" y1="935.254" x2="1089.26" y2="883.277" gradientUnits="userSpaceOnUse"> <stop stop-color="#E5C3A3"></stop> <stop offset="1" stop-color="#C9A07F"></stop> </linearGradient> <linearGradient id="paint34_linear_122_1860" x1="894.28" y1="846.899" x2="1246.4" y2="846.899" gradientUnits="userSpaceOnUse"> <stop stop-color="#E2CFBF"></stop> <stop offset="1" stop-color="#CEB19B"></stop> </linearGradient> <linearGradient id="paint35_linear_122_1860" x1="583.734" y1="855.862" x2="916.754" y2="855.862" gradientUnits="userSpaceOnUse"> <stop stop-color="#E2CFBF"></stop> <stop offset="1" stop-color="#CEB19B"></stop> </linearGradient> <linearGradient id="paint36_linear_122_1860" x1="565.932" y1="705.935" x2="769.053" y2="710.488" gradientUnits="userSpaceOnUse"> <stop stop-color="#0D4938"></stop> <stop offset="0.28" stop-color="#1E7439"></stop> <stop offset="0.63" stop-color="#80BA3F"></stop> </linearGradient> <clipPath id="clip0_122_1860"> <rect width="1452" height="954" fill="white" transform="translate(0.0625)"></rect> </clipPath> </defs> </svg> 