<svg id="Capa_1" enable-background="new 0 0 512 512" height="512" viewBox="0 0 512 512" width="512" xmlns="http://www.w3.org/2000/svg"><g><g><path d="m203.942 504.517v-154.236c0-19.701-4.309-37.872-11.679-52.895-7.285-14.825-17.461-26.533-29.339-33.506-9.269-5.415-12.387-17.348-6.945-26.618s17.348-12.359 26.617-6.945c18.454 10.829 33.959 28.318 44.589 49.976 3.713 7.512 6.832 15.562 9.297 23.981v-78.861c0-10.8 8.731-19.531 19.531-19.531 10.771 0 19.502 8.731 19.502 19.531v78.861c2.466-8.419 5.584-16.469 9.298-23.981 10.63-21.657 26.135-39.147 44.589-49.976 9.269-5.415 21.175-2.325 26.617 6.945s2.324 21.203-6.945 26.618c-11.878 6.973-22.054 18.681-29.338 33.506-7.37 15.023-11.679 33.194-11.679 52.895v154.235h-104.115z" fill="#917d52"/><g clip-rule="evenodd" fill-rule="evenodd"><path d="m256.014 226.462c-17.093 0-33.023-4.11-46.403-11.169-12.075 32.854-49.436 56.807-93.628 56.807-53.972 0-97.739-35.716-97.739-79.796 0-33.761 25.653-62.618 61.937-74.268-.765-20.126 8.702-38.098 23.754-51.024 15.647-13.437 37.701-21.799 62.135-21.799 4.536 0 8.986.283 13.323.851 14.23-22.904 43.172-38.552 76.621-38.552 33.42 0 62.362 15.648 76.592 38.552 4.337-.567 8.787-.851 13.323-.851 25.994 0 49.294 9.468 65.055 24.435 13.408 12.756 21.543 29.679 20.834 48.388 36.284 11.65 61.937 40.507 61.937 74.268 0 44.08-43.767 79.796-97.738 79.796-44.192 0-81.553-23.953-93.628-56.807-13.38 7.059-29.31 11.169-46.375 11.169z" fill="#66b394"/><path d="m104.417 452.528c6.945 0 13.606 1.389 19.644 3.883 10.573-36.993 44.646-64.092 85.039-64.092 29.083 0 54.907 14.06 71.008 35.745 12.388-6.86 26.618-10.8 41.811-10.8 32.655 0 61.086 18.171 75.713 44.959 4.819-1.701 10.007-2.637 15.393-2.637 22.053 0 40.507 15.506 45.042 36.199.992 4.564.624 8.731-5.386 8.731h-393.363c-6.208 0-6.548-4.139-5.754-8.816 4.138-24.349 25.37-43.172 50.853-43.172z" fill="#b3e59f"/><path d="m283.595 426.251c11.537-5.755 24.548-8.986 38.325-8.986 32.655 0 61.086 18.171 75.713 44.959 4.819-1.701 10.007-2.637 15.393-2.637 22.053 0 40.507 15.506 45.042 36.199.992 4.564.624 8.731-5.386 8.731h-20.834c-6.321-19.475-23.386-33.393-43.455-33.393-4.564.028-6.009.482-10.346 1.474-6.463 1.502-7.087-2.353-9.978-7.228-5.641-9.468-15.364-19.305-24.406-25.598-13.805-9.609-29.565-14.655-46.375-14.712-4.679 0-9.242.397-13.693 1.191z" fill="#95d6a4"/><path d="m414.839 120.672c32.712 12.189 54.652 40.196 54.652 71.632 0 40.734-37.36 74.325-85.606 79.201 3.969.397 8.022.595 12.133.595 53.972 0 97.738-35.716 97.738-79.796 0-33.761-25.653-62.618-61.937-74.268.708-18.709-7.427-35.632-20.834-48.388-15.761-14.967-39.061-24.435-65.055-24.435-4.11 0-8.164.226-12.104.68 21.033 2.466 39.628 11.168 52.895 23.755 11.452 10.885 18.198 24.945 20.58 40.309.877 5.613 2.407 8.788 7.538 10.715z" fill="#5aa687"/><path d="m283.794 350.281v75.856c7.54-3.714 15.704-6.378 24.264-7.768v-68.089c0-19.701 4.309-37.872 11.679-52.895 6.803-13.861 16.157-25.002 27.07-32.088 1.219-.794 2.523-1.503 3.714-2.353-6.151-2.636-11.906-5.811-17.207-9.411-6.803 5.244-26.249 20.268-37.842 43.852-7.37 15.025-11.678 33.196-11.678 52.896z" fill="#8a764b"/></g></g><path d="m213.098 208.661c6.293 3.345 13.181 5.953 20.438 7.682 7.03 1.701 14.57 2.608 22.479 2.608 7.88 0 15.42-.907 22.451-2.608 7.171-1.729 13.918-4.28 20.154-7.512 3.997-2.353 9.184-.51 10.8 3.883 5.839 15.874 17.915 28.63 32.202 37.304 16.271 9.865 35.461 14.599 54.397 14.599 25.228 0 47.99-8.306 64.403-21.685 15.959-13.04 25.852-30.926 25.852-50.627 0-14.825-5.584-28.63-15.137-40.082-10.063-12.048-24.52-21.572-41.556-27.071-3.147-.964-5.357-3.94-5.244-7.37.312-7.965-1.219-15.562-4.252-22.593-3.203-7.483-8.107-14.258-14.258-20.098-7.314-6.945-16.441-12.615-26.787-16.526-10.035-3.77-21.232-5.868-33.109-5.868-3.969 0-7.937.227-11.906.708-2.948.567-6.094-.68-7.795-3.401-6.491-10.46-16.498-19.276-28.772-25.455-12.018-6.066-26.192-9.553-41.442-9.553-15.279 0-29.452 3.487-41.471 9.553-12.217 6.151-22.195 14.91-28.715 25.341-1.559 2.524-4.365 3.969-7.37 3.572-4.11-.511-8.249-.766-12.387-.766-6.945 0-13.634.708-19.927 2.041-6.52 1.389-12.699 3.43-18.482 6.038-3.77 1.701-8.221.028-9.921-3.742-1.701-3.77 0-8.192 3.77-9.893 6.69-3.062 13.946-5.443 21.572-7.03 7.398-1.587 15.108-2.409 22.989-2.409 3.203 0 6.435.142 9.609.425 7.88-11.026 18.936-20.325 32.117-26.958 14.085-7.086 30.583-11.168 48.214-11.168 17.603 0 34.101 4.082 48.189 11.169 13.181 6.633 24.236 15.931 32.117 26.958 3.175-.283 6.406-.425 9.609-.425 13.635 0 26.645 2.466 38.381 6.859 12.246 4.621 23.074 11.367 31.833 19.673 7.597 7.229 13.691 15.704 17.716 25.03 3.146 7.342 5.045 15.194 5.414 23.443 17.518 6.548 32.514 16.979 43.342 29.962 11.764 14.117 18.652 31.21 18.652 49.635 0 24.407-12.019 46.376-31.408 62.221-18.992 15.505-45.099 25.087-73.842 25.087-15.874 0-30.955-2.948-44.476-8.164-5.528 4.025-9.808 7.484-13.436 11.367-4.252 4.564-7.767 9.95-11.65 17.83-2.438 4.961-4.507 10.318-6.208 16.044-1.644 5.642-2.891 11.509-3.685 17.604-.511 4.082-4.252 6.973-8.334 6.463-4.11-.51-7.002-4.252-6.491-8.362.907-6.973 2.324-13.635 4.167-19.928 1.899-6.435 4.28-12.585 7.144-18.368 4.592-9.354 8.872-15.846 14.117-21.459 2.778-3.005 5.754-5.698 9.156-8.419-.822-.482-1.616-.964-2.41-1.446-6.435-3.883-12.302-8.391-17.518-13.379-4.053 3.827-7.88 8.05-11.452 12.643-5.131 6.576-9.638 13.805-13.408 21.543-1.757 3.543-3.373 7.229-4.876 11.112-1.389 3.6-2.664 7.313-3.77 11.083-.709 3.43-3.742 6.01-7.37 6.01-4.139 0-7.483-3.374-7.483-7.512v-70.981c-3.969.426-7.965.652-12.019.652-4.082 0-8.079-.227-12.047-.652v70.981c0 3.231-2.154 6.236-5.414 7.171-3.968 1.163-8.107-1.134-9.27-5.102-1.134-3.94-2.466-7.852-3.94-11.65-1.503-3.883-3.118-7.568-4.876-11.112-3.77-7.739-8.277-14.967-13.408-21.543-3.572-4.593-7.398-8.816-11.452-12.643-5.981 5.754-12.728 10.687-19.928 14.825 3.402 2.721 6.407 5.414 9.156 8.419 5.244 5.641 9.524 12.104 14.116 21.459 4.025 8.164 7.172 17.178 9.298 26.816 2.069 9.354 3.175 19.219 3.175 29.367v34.583c14.598.34 28.403 3.968 40.734 10.176 11.509 5.783 21.713 13.862 29.99 23.585 5.897-2.749 12.076-4.904 18.425-6.378v-44.957c0-4.139 3.345-7.512 7.483-7.512 4.167 0 7.512 3.373 7.512 7.512v42.69c2.098-.142 4.224-.199 6.35-.199 17.404 0 33.76 4.763 47.735 13.068 12.756 7.569 23.527 18.057 31.464 30.586 3.883-.907 7.909-1.361 11.906-1.361 14.542 0 27.723 5.811 37.389 15.222 9.694 9.439 15.817 22.536 16.186 37.05.085 4.195-3.373 7.653-7.512 7.653h-406.204c-4.563 0-7.512-3.629-7.512-7.938 0-16.299 6.605-31.068 17.292-41.754 10.687-10.658 25.455-17.264 41.754-17.264 5.017 0 10.063.624 14.91 1.899 1.077-2.891 2.324-5.726 3.685-8.504 2.523-5.13 5.527-10.034 8.901-14.627 2.466-3.317 7.143-3.997 10.459-1.559 3.317 2.466 4.025 7.144 1.559 10.46-2.834 3.855-5.357 7.965-7.483 12.331-2.466 5.018-3.515 9.44-5.471 14.202-1.559 3.827-5.924 5.641-9.751 4.082-5.329-2.183-11.055-3.288-16.809-3.288-12.161 0-23.159 4.932-31.153 12.897-6.378 6.378-10.828 14.74-12.331 24.066h389.735c-1.672-7.341-5.471-13.89-10.687-18.964-6.944-6.775-16.44-10.971-26.957-10.971-4.422 0-8.731.737-12.898 2.212-3.401 1.19-7.285-.227-9.071-3.487-6.775-12.415-16.838-22.819-28.999-30.047-11.764-6.974-25.483-10.97-40.138-10.97-6.605 0-13.352.822-19.758 2.466-6.463 1.672-12.614 4.138-18.311 7.313-3.26 1.871-7.455 1.049-9.751-2.041-7.512-10.092-17.32-18.397-28.687-24.123-10.885-5.471-23.216-8.561-36.312-8.561-7.455 0-14.882.992-22.053 3.005-7.2 2.041-14.004 5.074-20.296 8.929-3.515 2.183-8.135 1.077-10.318-2.466-2.154-3.516-1.049-8.136 2.466-10.29 7.398-4.564 15.477-8.136 24.094-10.573 4.365-1.247 8.873-2.154 13.436-2.778v-35.377c0-9.213-.963-18-2.749-26.136-1.871-8.476-4.649-16.384-8.135-23.5-3.883-7.88-7.398-13.237-11.65-17.83-3.628-3.883-7.909-7.371-13.436-11.367-13.521 5.216-28.602 8.164-44.476 8.164-28.744 0-54.851-9.581-73.843-25.087-19.389-15.846-31.408-37.814-31.408-62.221 0-18.425 6.888-35.519 18.652-49.635 10.829-12.982 25.824-23.414 43.342-29.962.34-7.229 1.814-14.174 4.309-20.722 3.26-8.532 8.249-16.413 14.542-23.329 2.75-3.062 7.484-3.288 10.545-.539 3.062 2.778 3.289 7.483.51 10.545-4.989 5.528-8.986 11.821-11.593 18.652-2.41 6.35-3.628 13.153-3.402 20.24.227 3.345-1.842 6.52-5.159 7.597-17.064 5.499-31.549 14.995-41.612 27.071-9.553 11.452-15.137 25.257-15.137 40.082 0 19.701 9.893 37.587 25.852 50.627 16.413 13.379 39.175 21.685 64.403 21.685 18.935 0 38.126-4.733 54.397-14.599 14.088-8.561 26.05-21.09 31.975-36.68 1.7-4.476 6.122-7.112 10.743-4.674zm-7.569 29.537c4.791 4.451 9.269 9.355 13.379 14.655 3.6 4.649 6.973 9.638 10.063 14.967v-37.219c-5.414-1.36-10.63-3.118-15.562-5.216-2.211 4.479-4.847 8.76-7.88 12.813zm100.942 0c-3.033-4.054-5.669-8.334-7.88-12.813-4.933 2.098-10.148 3.855-15.562 5.216v37.219c3.09-5.329 6.463-10.318 10.063-14.967 4.11-5.3 8.588-10.204 13.379-14.655z"/></g></svg>